<?xml version="1.0" encoding="utf-8"?>
<!-- Generator: Adobe Illustrator 27.5.0, SVG Export Plug-In . SVG Version: 6.00 Build 0)  -->
<svg version="1.1" xmlns="http://www.w3.org/2000/svg" xmlns:xlink="http://www.w3.org/1999/xlink" x="0px" y="0px"
	 viewBox="0 0 500 500" style="enable-background:new 0 0 500 500;" xml:space="preserve">
<g id="Background">
	<rect style="fill:#F0F0F1;" width="500" height="500"/>
</g>
<g id="Graphic_Elements">
	<g>
		<path style="fill:#FFFFFF;" d="M319.595,117.372c6.054-1.717,12.101-3.459,18.178-5.091c7.791-2.092,15.607-4.087,23.414-6.122
			c1.092-0.285,2.179-0.599,3.284-0.825c1.372-0.28,2.41,0.235,3.112,1.46c0.485,0.847,0.826,1.746,1.129,2.669
			c2.32,7.06,4.221,14.227,5.582,21.537c0.389,2.087,0.516,2.128,2.542,1.658c0.524-0.121,1.045-0.256,1.569-0.374
			c0.606-0.136,0.916-0.436,0.859-1.126c-0.067-0.812-0.145-1.604-0.536-2.336c-0.873-1.635-1.356-3.398-1.59-5.222
			c-0.411-3.214-1.259-6.323-2.141-9.429c-1.146-4.039-2.491-8.012-3.945-11.948c-0.493-1.336-0.592-1.369-2.031-1.135
			c-1.327,0.216-2.649,0.46-3.979,0.659c-3.084,0.463-6.168,0.965-9.187,1.732c-10.582,2.688-21.128,5.509-31.514,8.898
			c-5.214,1.701-10.423,3.456-15.788,4.63c-9.938,2.176-19.716,4.97-29.486,7.759c-11.534,3.293-23.087,6.497-34.686,9.551
			c-5.618,1.479-11.361,2.431-16.927,4.115c-1.515,0.458-1.639,0.56-1.414,2.128c0.229,1.596,0.48,3.193,0.826,4.767
			c1.593,7.249,3.174,14.501,5.519,21.559c0.505,1.521,0.471,1.537,2.005,1.145c0.26-0.067,0.517-0.148,0.78-0.206
			c0.659-0.145,0.844-0.545,0.737-1.191c-0.259-1.557-0.707-3.037-1.612-4.351c-0.892-1.295-1.572-2.686-2.013-4.201
			c-0.375-1.291-0.811-2.564-1.208-3.848c-0.73-2.364-1.494-4.718-1.886-7.172c-0.467-2.921-0.059-3.626,2.685-4.547
			c0.102-0.034,0.202-0.074,0.305-0.105c5.933-1.747,11.862-3.505,17.799-5.237c4.801-1.4,9.696-2.486,14.42-4.138
			c8.284-2.898,16.714-5.264,25.224-7.404c7.256-1.824,14.547-3.433,21.924-4.662c0.422-0.07,0.843-0.207,1.276-0.097
			c0.268,0.068,0.501,0.198,0.532,0.517c0.024,0.246-0.119,0.436-0.309,0.521c-0.489,0.218-0.986,0.433-1.501,0.576
			c-8.856,2.476-17.712,4.95-26.573,7.404c-4.301,1.191-8.625,2.293-12.814,3.867c-3.523,1.324-7.031,2.692-10.663,3.714
			c-8.489,2.39-16.968,4.815-25.451,7.225c-0.828,0.235-1.662,0.449-2.482,0.708c-1.052,0.332-1.209,0.532-1.114,1.624
			c0.121,1.397,0.557,2.735,0.856,4.1c1.106,5.048,3.126,9.816,4.489,14.784c0.252,0.918,0.454,1.032,1.392,0.816
			c1.467-0.338,2.91-0.838,4.394-1.02c1.196-0.147,1.93-0.71,2.633-1.598c3.285-4.146,6.989-7.898,11.085-11.237
			c5.283-4.307,11.022-7.95,17.393-10.384c9.533-3.643,19.4-5.526,29.682-5.041c5.679,0.268,11.222,1.154,16.68,2.685
			c0.553,0.155,1.088,0.471,1.691,0.287c0.256-0.398,0.044-0.768-0.067-1.096c-1.734-5.096-2.656-10.425-4.461-15.499
			c-0.252-0.709-0.559-1.4-0.781-2.118C316.811,119.69,317.677,117.916,319.595,117.372z"/>
		<path style="fill:#FFFFFF;" d="M367.738,134.615c3.24-0.799,3.24-0.798,2.166-4.001c-0.034-0.102-0.051-0.21-0.089-0.31
			c-0.168-0.452-0.489-0.654-0.833-0.245c-1.337,1.593-2.746,3.134-3.907,4.865c0.065,0.102,0.13,0.203,0.194,0.305
			C366.093,135.024,366.915,134.818,367.738,134.615z"/>
		<path style="fill:#FFFFFF;" d="M375.679,139.203c-4.741,0.997-9.328,2.593-14.05,3.663c-6.554,1.485-13.111,2.959-19.77,3.927
			c-1.301,0.189-2.666,0.189-4.257,0.907c2.426,1.666,4.454,3.331,6.514,4.956c0.495,0.39,1.016,0.203,1.54,0.07
			c1.668-0.422,3.326-0.898,5.012-1.238c5.428-1.096,10.784-2.562,16.306-3.173c1.175-0.13,2.35-0.26,3.528-0.356
			c0.319-0.026,0.695,0.067,0.825,0.395c0.146,0.364-0.161,0.601-0.433,0.769c-0.548,0.339-1.105,0.669-1.681,0.958
			c-3.088,1.553-6.324,2.71-9.653,3.624c-2.982,0.819-3.091,0.999-1.866,3.944c1.972,4.742,5.27,8.455,9.221,11.642
			c0.436,0.352,0.927,0.545,1.482,0.559c4.988,0.125,9.789-0.35,13.693-3.999c0.891-0.833,1.593-1.718,1.98-2.878
			c0.719-2.149,1.198-4.352,1.641-6.57c0.416-2.084,0.423-4.154,0.102-6.255c-0.235-1.538-0.448-3.089-0.44-4.655
			c0.003-0.652,0.052-1.301,0.406-1.868c0.386-0.617,0.955-0.685,1.485-0.191c0.402,0.376,0.594,0.89,0.834,1.37
			c1.444,2.899,2.348,6.009,3.524,9.013c3.478,8.883,6.18,18.02,8.503,27.248c1.678,6.667,2.683,13.5,4.104,20.235
			c2.141,10.152,4.016,20.368,7.067,30.31c0.787,2.565,0.874,2.68,3.272,1.99c2.147-0.619,2.197-0.635,1.471-2.83
			c-1.351-4.086-2.413-8.262-3.876-12.313c-0.512-1.418-0.881-2.88-1.117-4.373c-0.36-2.283-0.632-4.585-1.09-6.848
			c-2.104-10.39-4.854-20.627-7.398-30.912c-1.86-7.518-3.977-14.974-5.759-22.51c-1.398-5.911-2.458-11.903-3.666-17.859
			c-0.384-1.892-0.378-1.886-2.146-1.292C385.938,136.361,380.905,138.104,375.679,139.203z"/>
		<path style="fill:#FFFFFF;" d="M238.585,116.864c-0.16-0.234-0.218-0.426-0.336-0.477c-1.696-0.725-3.409-1.273-5.299-0.754
			c-1.862,0.511-3.731,1.015-5.622,1.401c-3.101,0.634-6.21,1.244-9.337,1.724c-2.017,0.31-3.655,0.869-4.416,3.039
			c-0.325,0.928-1.143,1.683-1.783,2.582c8.906-2.449,17.648-4.852,26.387-7.261C238.324,117.078,238.445,116.954,238.585,116.864z"
			/>
		<path style="fill:#FFFFFF;" d="M216.48,183.842c5.852-2.307,11.676-4.696,17.866-6.01c3.242-0.688,2.625-0.24,3.716-3.225
			c0.298-0.816,0.833-1.581,0.828-2.541c-2.6,0.327-49.993,13.213-51.234,13.916c0.344,0.404,0.862,0.394,1.296,0.553
			c3.782,1.386,7.303,3.201,9.974,6.314c2.624,3.059,5.344,6.041,7.631,9.379c0.843,1.23,1.044,1.236,2.376,0.505
			c1.233-0.677,2.24-1.667,3.35-2.514c3.523-2.688,6.627-5.813,9.392-9.27c1.078-1.348,2.019-2.801,2.472-4.495
			c0.338-1.265,0.047-1.564-1.233-1.36c-1.963,0.313-3.919,0.677-5.888,0.943c-0.713,0.096-1.566,0.253-2.02-0.579
			C214.726,184.945,215.253,184.326,216.48,183.842z"/>
		<path style="fill:#FFFFFF;" d="M246.093,341.135c-0.237,2.159-0.46,4.179-0.444,6.219c0.019,2.422-0.003,4.847-0.279,7.251
			c-0.471,4.094-2.85,8.035-7.555,8.619c-1.231,0.153-2.459,0.178-3.695-0.038c-0.904-0.158-1.05,0.057-0.776,0.946
			c0.047,0.154,0.112,0.303,0.169,0.453c1.6,4.192,2.629,8.525,3.169,12.975c0.243,2.002,0.466,4.007,0.702,6.046
			c0.417-0.25,0.452-0.655,0.589-0.985c3.974-9.531,6.68-19.415,8.13-29.636c0.468-3.299,0.794-6.62,0.763-9.962
			C246.859,342.342,246.897,341.646,246.093,341.135z"/>
		<path style="fill:#FFFFFF;" d="M365.487,113.669c-0.068-0.288-0.046-0.663-0.639-0.891c-8.827,9.108-17.482,18.471-25.429,28.828
			c2.003,0.103,3.137-0.542,4.04-1.996c2.88-4.632,6.346-8.8,10.336-12.534c3.179-2.976,6.307-6.007,9.243-9.229
			c0.432-0.474,0.901-0.943,1.433-1.292C366.066,115.509,365.961,115.674,365.487,113.669z"/>
		<path style="fill:#FFFFFF;" d="M201.913,132.94c-3.688,0.656-7.361,1.451-10.913,2.795c-4.654,1.761-9.508,2.715-14.201,2.528
			c-0.759,0-1.197,0.051-1.619-0.008c-2.487-0.35-4.37,0.763-6.031,2.439c-0.379,0.382-0.752,0.77-1.139,1.143
			c-3.523,3.404-6.781,7.055-10.086,10.666c-2.834,3.098-5.603,6.239-8.054,9.656c-2.372,3.305-2.383,3.724-0.568,7.443
			c2.531,5.186,4.522,10.578,5.792,16.22c0.165,0.733,0.275,1.479,0.426,2.216c0.105,0.514,0.42,0.719,0.944,0.589
			c0.47-0.117,0.947-0.203,1.414-0.331c3.733-1.029,7.47-2.037,11.247-2.897c10.49-2.389,20.776-5.567,31.224-8.124
			c9.039-2.212,17.828-5.332,26.891-7.464c1.036-0.244,1.11-0.414,0.774-1.495c-0.591-1.9-1.327-3.759-1.836-5.679
			c-1.572-5.927-2.913-11.908-3.876-17.968c-0.287-1.805-0.614-3.605-0.861-5.416c-0.364-2.674,0.689-4.118,3.313-4.561
			c1.332-0.225,2.621-0.6,3.898-1.017c1.486-0.486,2.989-0.897,4.517-1.212c10.862-2.234,21.559-5.137,32.193-8.243
			c10.121-2.956,20.258-5.841,30.464-8.483c4.685-1.212,9.441-2.148,14.124-3.367c6.718-1.749,13.291-3.992,19.864-6.207
			c5.57-1.877,11.235-3.325,16.983-4.516c4.524-0.938,9.096-1.675,13.5-3.152c3.395-1.139,6.965-1.286,10.491-1.671
			c1.738-0.19,2.888,0.603,3.652,2.079c0.247,0.476,0.455,0.976,0.642,1.479c1.669,4.492,3.197,9.039,4.189,13.725
			c1.117,5.272,3.098,10.298,4.215,15.564c0.218,1.03,0.475,1.167,1.488,0.884c1.656-0.463,3.297-0.988,4.921-1.553
			c1.259-0.437,1.33-0.56,1.017-1.915c-0.375-1.622-0.96-3.201-1.26-4.834c-0.672-3.659-1.702-7.219-2.702-10.793
			c-0.825-2.951-1.535-5.935-2.289-8.905c-0.953-3.753-1.896-7.507-3.116-11.187c-0.573-1.729-1.857-2.785-3.471-3.008
			c-2.161-0.299-4.42-0.448-6.566,0.22c-4.266,1.328-8.658,2.179-12.931,3.471c-16.225,4.904-32.744,8.66-49.241,12.476
			c-11.318,2.618-22.611,5.328-33.848,8.259c-9.833,2.565-19.625,5.299-29.397,8.09c-7.911,2.259-15.884,4.295-23.737,6.766
			C215.634,129.755,208.873,131.702,201.913,132.94z"/>
		<path style="fill:#FFFFFF;" d="M102.659,237.438c0.207-1.435,0.533-2.854,0.829-4.275c0.912-4.373,1.955-8.711,3.506-12.91
			c0.167-0.452,0.301-0.932,0.653-1.283c0.294-0.293,0.613-0.234,0.752,0.145c0.107,0.293,0.118,0.634,0.113,0.953
			c-0.042,2.741,0.055,5.487-0.283,8.22c-0.184,1.487-0.299,2.983-0.446,4.475c0.311-0.402,0.427-0.848,0.549-1.292
			c0.498-1.817,1.022-3.628,1.82-5.339c0.28-0.6,0.447-1.637,1.236-1.462c0.854,0.19,0.45,1.16,0.404,1.814
			c-0.143,2.038-0.317,4.074-0.47,6.111c-0.023,0.305-0.175,0.635,0.184,0.978c0.746-0.178,1.415-0.63,2.09-1.04
			c7.401-4.496,14.86-8.902,22.17-13.542c5.272-3.346,10.205-7.178,14.527-11.734c0.525-0.553,0.963-1.093,1.071-1.916
			c0.565-4.296,0.646-8.572-0.353-12.818c-1.343-5.714-3.081-11.305-5.167-16.794c-0.84-2.21-1.787-4.389-2.377-6.686
			c-0.616-2.396-0.385-4.62,1.111-6.747c2.415-3.433,4.841-6.864,7.491-10.109c3.81-4.666,7.984-9.019,12.225-13.301
			c0.719-0.726,1.451-1.443,2.117-2.216c2.307-2.681,5.11-4.179,8.748-4.003c1.819,0.088,3.657,0.142,5.472-0.202
			c7.22-1.368,14.186-3.517,20.843-6.657c3.567-1.682,6.361-4.184,8.346-7.583c1.067-1.827,0.632-3.651-0.2-5.401
			c-0.685-1.441-2.104-1.597-3.46-1.593c-4.641,0.015-9.187-0.966-13.808-1.216c-5.698-0.308-11.305-1.423-16.878-2.622
			c-4.378-0.942-8.749-1.76-13.26-1.407c-2.785,0.218-5.229,1.135-7.196,3.187c-0.968,1.01-1.912,2.037-2.834,3.09
			c-1.982,2.263-3.956,4.523-6.252,6.507c-2.275,1.966-4.527,3.974-6.713,6.039c-2.583,2.44-5.234,4.801-7.946,7.087
			c-7.196,6.067-14.391,12.136-21.714,18.051c-1.124,0.908-2.26,1.806-3.053,3.075c-2.052,3.284-3.174,6.808-2.929,10.708
			c0.267,4.239,0.61,8.469,1.539,12.63c1.29,5.779,1.515,11.629,0.794,17.484c-0.514,4.176-0.72,8.348-0.668,12.546
			c0.019,1.559,0.035,3.129-0.12,4.677c-0.594,5.937-1.234,11.871-2.164,17.766c-0.51,3.237-0.88,6.504-1.782,9.671
			c-0.089,0.312-0.349,0.628-0.147,1C102.078,239.139,102.513,238.45,102.659,237.438z M186.008,122.022
			c-3.494,1.144-7.103,1.575-10.758,1.693c-1.243,0.067-2.464-0.116-3.686-0.286c-0.7-0.097-1.369-0.317-1.916-0.775
			c-0.983-0.824-0.778-2.094,0.409-2.551c0.605-0.233,1.254-0.266,1.9-0.291c4.674-0.182,9.318,0.259,13.962,0.672
			c0.495,0.044,1.239-0.025,1.277,0.674C187.234,121.835,186.484,121.867,186.008,122.022z M163.405,109.704
			c-0.491-0.421-0.743-0.927-0.562-1.57c0.179-0.635,0.668-0.94,1.275-1.105c0.823-0.224,1.615,0.027,2.385,0.216
			c5.119,1.252,10.278,2.339,15.361,3.741c1.139,0.314,2.301,0.547,3.443,0.855c0.377,0.102,1.011,0.058,0.942,0.649
			c-0.058,0.501-0.647,0.478-1.049,0.555c-0.367,0.07-0.749,0.077-1.125,0.079c-1.666,0.01-3.334,0.074-4.988-0.237
			c-0.394-0.074-0.817-0.161-1.476,0.087c2.223,0.453,4.222,0.828,6.203,1.28c0.672,0.154,1.821-0.044,1.796,0.904
			c-0.02,0.756-1.134,0.657-1.777,0.759c-1.626,0.257-3.265,0.465-4.924,0.502c2.803,0.009,5.585,0.307,8.376,0.421
			c0.376,0.015,0.753,0.02,1.128,0.052c0.266,0.023,0.568,0.061,0.642,0.379c0.076,0.326-0.184,0.49-0.429,0.585
			c-0.449,0.176-0.912,0.322-1.376,0.455c-1.769,0.507-3.596,0.708-5.415,0.803c-4.512,0.237-9.029,0.341-13.531-0.214
			c-0.647-0.08-1.262-0.281-1.796-0.67c-0.418-0.304-0.676-0.705-0.566-1.243c0.122-0.6,0.538-0.924,1.12-1.003
			c0.314-0.043,0.646-0.019,0.961,0.03c1.71,0.267,3.429,0.133,5.148,0.134c-2.449-0.221-4.877-0.568-7.287-1.044
			c-0.741-0.146-1.472-0.334-2.143-0.69c-0.808-0.429-1.388-1.06-1.386-2.02c0.003-0.917,0.546-1.475,1.398-1.763
			c0.139-0.047,0.249-0.179,0.362-0.264C164.013,109.965,163.642,109.907,163.405,109.704z M128.295,145.542
			c0.346,0.219,0.248,0.564,0.094,0.855c-0.935,1.764-2.113,3.369-3.26,4.995c-0.555,0.787-1.275,1.466-1.599,2.407
			c0.855-0.735,1.715-1.464,2.563-2.206c0.445-0.389,0.854-0.82,1.307-1.198c0.358-0.298,0.75-0.76,1.254-0.351
			c0.392,0.319,0.182,0.8,0.052,1.206c-0.409,1.287-1.03,2.48-1.652,3.671c-1.273,2.438-2.775,4.729-4.545,6.832
			c-1.03,1.224-2.175,1.482-3.077,0.826c-0.865-0.63-0.936-1.653-0.221-3.062c0.266-0.525,0.668-0.981,0.797-1.576
			c0.472-0.491,0.896-1.022,1.313-1.56c-0.417,0.538-0.841,1.07-1.313,1.56c-0.652,0.639-1.3,1.282-1.958,1.914
			c-0.348,0.335-0.693,0.68-1.079,0.968c-0.521,0.388-1.099,0.472-1.631,0.022c-0.54-0.457-0.53-1.036-0.199-1.603
			c0.271-0.463,0.577-0.909,0.908-1.331c3.326-4.248,7.129-8.049,11.033-11.755c0.156-0.148,0.314-0.296,0.485-0.426
			C127.78,145.572,128.031,145.375,128.295,145.542z M127.508,143.393c-0.076,0.385-0.336,0.668-0.576,0.949
			c-0.661,0.775-1.326,1.549-2.022,2.292c-3.411,3.636-6.688,7.404-10.486,10.659c-0.489,0.419-0.975,0.843-1.573,1.106
			c-0.545,0.24-1.053,0.184-1.485-0.236c-0.435-0.424-0.478-0.933-0.25-1.48c0.232-0.556,0.625-0.997,1.031-1.426
			c4.111-4.338,8.71-8.106,13.569-11.567c0.389-0.277,0.822-0.507,1.264-0.689C127.261,142.885,127.492,143.038,127.508,143.393z
			 M107.47,153.849c0.334-0.544,0.754-1.061,1.226-1.489c4.779-4.339,9.632-8.588,15.32-11.74c0.516-0.286,1.053-0.538,1.593-0.775
			c0.295-0.129,0.653-0.22,0.876,0.103c0.172,0.249,0.018,0.529-0.15,0.74c-0.334,0.42-0.679,0.833-1.044,1.226
			c-2.787,3.003-5.955,5.587-9.063,8.237c-1.799,1.534-3.614,3.05-5.443,4.549c-0.663,0.544-1.364,1.065-2.191,1.064
			C107.393,155.722,106.878,154.811,107.47,153.849z"/>
		<path style="fill:#FFFFFF;" d="M330.313,143.71c0.612,0.236,1.011,0.167,1.335-0.422c0.389-0.705,0.79-1.408,1.239-2.075
			c3.092-4.596,6.371-9.055,9.803-13.404c3.497-4.431,7.405-8.521,10.783-13.05c0.505-0.677,1.032-1.337,1.544-1.999
			c-0.422-0.348-0.73-0.17-1.03-0.1c-2.041,0.475-4.085,0.942-6.121,1.436c-5.209,1.263-5.159,1.309-8.63,5.448
			c-4.012,4.785-7.501,9.961-11.312,14.895c-2.018,2.613-1.848,2.603-1.013,5.791C327.42,142.171,328.638,143.063,330.313,143.71z"
			/>
		<path style="fill:#FFFFFF;" d="M321.128,95.497c0.246,0.862,0.778,1.048,1.597,0.853c1.096-0.261,2.221-0.408,3.311-0.691
			c6.085-1.577,12.101-3.409,18.226-4.844c5.597-1.312,11.104-2.991,16.721-4.232c1.729-0.382,3.488-0.647,5.151-1.304
			c3.499-1.382,3.538-0.514,2.324-4.916c-0.071-0.257-0.192-0.502-0.305-0.745c-0.168-0.361-0.434-0.615-0.846-0.665
			c-0.852-0.103-1.705-0.199-2.639-0.307c-1.666,0.299-3.434,0.479-5.127,1.043c-1.434,0.477-2.902,0.761-4.412,0.887
			c-1.282,0.106-2.553,0.339-3.83,0.504c-2.409,0.311-4.66,1.318-7.058,1.643c-3.52,0.478-6.979,1.233-10.43,2.049
			c-4.405,1.041-8.7,2.407-12.844,4.232c-1.176,0.518-1.214,0.574-1.042,1.815C320.146,92.423,320.686,93.947,321.128,95.497z"/>
		<path style="fill:#FFFFFF;" d="M344.142,204.201c-0.167-0.786-0.423-1.556-0.67-2.323c-1.797-5.602-5.217-10.122-9.618-13.882
			c-5.375-4.593-11.403-7.843-18.649-8.377c-3.557-0.262-6.784-1.581-9.776-3.493c-2.025-1.294-3.431-3.103-4.246-5.333
			c-1.625-4.443-1.996-8.893,0.109-13.326c0.536-1.129,0.4-1.288-0.814-1.36c-2.212-0.132-4.425,0.053-6.592,0.376
			c-8.606,1.283-16.496,4.349-23.396,9.765c-1.131,0.888-1.982,1.951-2.544,3.268c-0.846,1.981-1.625,3.989-2.173,6.07
			c-1.283,4.874-0.865,9.535,1.52,14.069c2.156,4.1,6.819,6.675,11.735,5.958c2.173-0.317,4.227-1.132,5.688-3.019
			c1.62-2.094,3.515-3.928,5.795-5.315c5.161-3.141,10.701-3.928,16.607-2.8c4.371,0.835,8.187,2.655,11.176,5.971
			c8.719,9.673,7.531,24.732-1.919,32.494c-1.776,1.459-2.5,3.252-2.921,5.352c-0.476,2.372-0.216,4.729,0.143,7.059
			c0.696,4.512,3.191,7.787,7.235,9.878c2.022,1.046,4.216,1.206,6.442,1.09c0.86,0,1.728,0.076,2.578-0.014
			c2.659-0.284,5.118-0.963,7.094-3.008c2.547-2.636,5-5.331,7.092-8.348c0.72-1.039,1.209-2.126,1.394-3.388
			c0.233-1.594,0.608-3.168,0.871-4.758c0.655-3.951,0.774-7.92,0.051-11.866C345.696,211.346,344.902,207.776,344.142,204.201z"/>
		<path style="fill:#FFFFFF;" d="M285.689,273.339c-2.781-0.637-5.518-1.459-8.147-2.527c-1.652-0.671-3.175-0.822-4.827-0.327
			c-0.257,0.077-0.525,0.115-0.786,0.176c-1.212,0.285-1.29,0.34-1.356,1.602c-0.189,3.623-2.075,6.236-5.151,7.831
			c-4.668,2.42-9.617,2.83-14.684,1.269c-0.595-0.183-1.157-0.51-2.143-0.548c1.059,1.468,2.1,2.586,3.109,3.735
			c0.695,0.791,1.467,0.964,2.451,0.707c1.662-0.435,3.331-0.848,5.011-1.202c4.36-0.921,8.75-1.712,13.088-2.725
			c7.322-1.71,14.619-3.527,21.843-5.619c0.321-0.093,0.699-0.085,0.986-0.506c-1.56-0.173-2.997-0.339-4.435-0.491
			C288.918,274.53,287.361,273.722,285.689,273.339z"/>
		<path style="fill:#FFFFFF;" d="M249.542,290.516c-1.12-0.998-2.148-2.12-3.102-3.28c-4.892-5.943-9.478-12.116-13.847-18.454
			c-3.114-4.516-6.03-9.168-9.399-13.512c-4.196-5.411-9.09-10.044-14.839-13.759c-1.854-1.198-3.769-2.333-5.98-2.741
			c-3.72-0.687-7.389-0.51-10.951,0.869c-2.41,0.933-4.749,2.026-7.057,3.187c-3.7,1.862-7.361,3.801-11.17,5.443
			c-3.069,1.323-6.302,2.202-9.379,3.474c-12.722,5.261-26.076,8.038-39.575,10.271c-2.556,0.423-5.103,0.842-7.339,2.278
			c-2.725,1.75-5.483,3.486-6.928,6.566c-1.932,4.117-3.223,8.428-3.784,12.955c-0.458,3.699-0.434,7.406-0.329,11.118
			c0.014,0.482,0.038,0.977-0.05,1.446c-0.118,0.629-0.635,0.796-1.053,0.331c-0.391-0.434-0.707-0.95-0.987-1.467
			c-2.051-3.784-2.895-7.81-2.612-12.124c0.275-4.173,1.035-8.207,2.686-12.062c1.278-2.984,3.14-5.507,5.799-7.398
			c4.866-3.461,10.006-6.269,16.038-7.195c3.722-0.572,7.283-1.91,10.968-2.681c10.917-2.283,21.593-5.418,32.152-8.982
			c2.347-0.792,4.407-1.93,6.072-3.803c0.854-0.96,1.864-1.784,2.831-2.639c0.567-0.501,1.076-1.048,1.579-1.61
			c1.065-1.193,1.493-2.361,0.505-3.89c-0.661-1.024-1.088-2.228-1.341-3.445c-0.182-0.877,0.279-1.244,1.1-0.891
			c0.537,0.231,1.032,0.574,1.514,0.912c2.028,1.422,3.97,2.958,5.846,4.572c0.703,0.605,1.34,0.735,2.19,0.317
			c1.158-0.568,2.367-1.036,3.643-1.288c5.374-1.064,10.506-0.169,15.38,2.145c5.686,2.7,9.824,7.248,13.721,12.02
			c0.715,0.875,1.402,1.763,2.216,2.552c3.751,3.642,7.243,7.518,10.317,11.75c2.024,2.785,3.944,5.645,5.918,8.466
			c0.554,0.793,1.076,1.635,1.959,2.11c4.845,2.607,9.827,4.714,15.523,3.903c2.675-0.381,5.302-0.915,7.37-2.904
			c1.012-0.973,1.294-2.029,0.83-3.354c-0.812-2.322-2.057-4.37-3.725-6.171c-1.545-1.668-3.34-3.044-5.166-4.375
			c-2.068-1.508-3.752-3.353-5.24-5.428c-2.292-3.197-4.368-6.529-6.391-9.895c-1.334-2.22-3.067-4-5.327-5.265
			c-1.455-0.814-2.893-1.66-4.37-2.433c-2.723-1.426-5.339-3.011-7.755-4.922c-3.417-2.704-6.859-5.377-10.283-8.072
			c-1.946-1.532-3.817-3.161-5.519-4.956c-4.566-4.814-8.741-9.935-11.973-15.768c-0.26-0.469-0.598-0.895-0.876-1.355
			c-1.925-3.183-4.7-5.401-7.937-7.14c-3.623-1.947-7.551-2.773-11.565-3.32c-1.391-0.189-2.673,0.099-3.818,0.938
			c-1.431,1.048-2.922,2.012-4.247,3.206c-4.196,3.781-8.126,7.846-12.416,11.529c-3.632,3.118-7.191,6.321-10.77,9.501
			c-2.297,2.041-4.933,3.64-7.268,5.631c-1.72,1.467-3.531,2.816-5.396,4.098c-4.348,2.988-8.87,5.7-13.352,8.477
			c-8.14,5.044-16.527,9.678-24.583,14.863c-3.822,2.46-6.824,5.553-8.591,9.776c-0.645,1.542-1.074,3.155-1.576,4.745
			c-0.33,1.045-0.434,2.095-0.389,3.182c0.138,3.34,1.146,6.44,2.547,9.439c3.69,7.905,6.832,16.033,9.762,24.243
			c2.752,7.711,5.962,15.233,9.478,22.613c3.402,7.139,7.25,14.057,11.197,20.911c3.704,6.434,7.636,12.74,11.202,19.248
			c2.755,5.027,5.928,9.732,9.483,14.201c0.904,1.136,1.862,2.23,2.78,3.355c0.196,0.24,0.457,0.547,0.19,0.854
			c-0.275,0.317-0.606,0.07-0.865-0.091c-1.42-0.884-2.721-1.922-3.943-3.065c-2.92-2.732-5.405-5.839-7.837-8.995
			c-0.314-0.408-0.53-0.931-1.201-1.14c-0.004,0.62,0.254,1.094,0.414,1.588c0.944,2.917,1.905,5.829,2.831,8.752
			c1.056,3.333,2.015,6.699,3.137,10.009c1.629,4.806,3.643,9.443,6.713,13.534c2.662,3.547,5.947,6.507,9.178,9.511
			c0.312,0.29,0.679,0.532,1.046,0.752c4.3,2.573,8.724,4.896,13.414,6.69c5.596,2.141,11.406,3.521,17.236,4.812
			c3.982,0.882,8.002,0.892,12.025,0.224c8.298-1.378,15.653-4.937,22.446-9.762c3.177-2.257,6.032-4.903,8.295-8.07
			c2.03-2.841,3.76-5.893,5.367-9.004c0.406-0.785,0.595-1.594,0.589-2.479c-0.027-3.817,0.02-7.629-0.209-11.449
			c-0.438-7.317-1.801-14.39-4.698-21.151c-0.585-1.366-1.223-2.601-2.527-3.425c-0.486-0.308-0.882-0.79-1.25-1.247
			c-1.215-1.507-2.404-3.036-3.595-4.563c-1.172-1.503-2.03-3.175-2.55-5.004c-0.441-1.551-0.836-3.117-1.183-4.692
			c-1.217-5.524-0.806-11.021,0.469-16.465c0.618-2.64,0.682-2.715-1.736-3.965c-0.143-0.074-0.298-0.126-0.439-0.204
			c-2.826-1.555-5.748-2.946-8.347-4.888c-0.208-0.155-0.42-0.347-0.709-0.148c-0.206,0.32-0.024,0.627,0.037,0.932
			c0.637,3.226,0.951,6.484,1.062,9.771c0.237,7.078-0.536,14.071-1.718,21.029c-0.679,3.999-1.757,7.878-3.783,11.434
			c-0.247,0.433-0.404,1.195-1.062,0.982c-0.631-0.205-0.372-0.934-0.327-1.428c0.237-2.569,0.495-5.137,0.791-7.701
			c0.554-4.81,0.93-9.636,1.066-14.473c0.146-5.163-0.05-10.326-0.605-15.465c-0.182-1.682-0.387-3.373-0.913-5.029
			c-0.581,0.258-0.584,0.75-0.744,1.125c-2.271,5.31-5.03,10.349-8.285,15.12c-2.555,3.745-5.323,7.305-8.704,10.352
			c-0.559,0.504-1.122,1.008-1.728,1.451c-0.362,0.265-0.79,0.741-1.274,0.3c-0.408-0.372-0.034-0.816,0.143-1.176
			c0.474-0.965,0.993-1.909,1.502-2.857c2.698-5.031,5.953-9.727,8.793-14.673c3.138-5.464,6.148-10.983,8.437-16.872
			c0.388-1,0.378-1.804-0.151-2.728c-0.748-1.306-1.369-2.683-1.885-4.102c-0.204-0.559-0.366-1.127-0.279-1.734
			c0.211-1.481,1.533-2.069,2.723-1.165c0.552,0.419,1.027,0.948,1.496,1.465c4.304,4.744,8.927,9.177,13.457,13.698
			c1.964,1.961,3.993,3.879,6.396,5.386c1.657,1.04,2.286,2.891,2.007,4.809c-0.427,2.944-0.538,5.889-0.482,8.849
			c0.114,6.123,1.582,11.76,5.5,16.68c2.115,2.655,4.649,4.605,7.713,5.915c2.712,1.159,6.334-1.154,6.099-3.986
			c-0.107-1.285-0.161-2.576-0.233-3.864c-0.036-0.643-0.139-1.296-0.072-1.929c0.599-5.612,0.681-11.272,1.551-16.859
			c0.281-1.806,0.435-3.632,0.724-5.436c0.37-2.31,1.31-4.415,2.398-6.476c1.284-2.43,1.447-4.895,0.04-7.391
			c-0.824-1.461-1.736-2.848-2.827-4.115c-4.21-4.891-8.416-9.787-12.651-14.657c-2.903-3.338-5.574-6.839-7.752-10.698
			c-0.793-1.405-1.52-2.847-2.317-4.25c-0.537-0.945-1.216-1.8-2.221-2.281c-2.443-1.169-4.991-2.036-7.713-2.192
			c-4.065-0.233-8.066,0.26-11.953,1.448c-6.021,1.839-11.974,3.887-17.731,6.454c-9.447,4.212-19.456,6.111-29.645,7.296
			c-4.003,0.466-8.01,0.907-11.984,1.596c-4.005,0.694-6.54,3.158-7.873,6.836c-1.138,3.139-1.761,6.425-2.081,9.761
			c-0.303,3.158-0.625,6.315-1.256,9.43c-0.095,0.471-0.211,0.953-0.417,1.382c-0.237,0.493-0.705,0.502-1.005,0.036
			c-0.2-0.311-0.327-0.677-0.446-1.032c-0.512-1.533-0.922-3.094-1.173-4.691c-0.572-3.639-0.427-7.305-0.214-10.952
			c0.174-2.982,1.03-5.812,2.709-8.352c2.921-4.417,6.668-7.482,12.161-8.149c4.748-0.577,9.457-1.472,14.192-2.167
			c6.46-0.949,12.81-2.428,18.948-4.601c7.1-2.514,14.191-5.024,21.395-7.235c4.351-1.336,8.738-2.272,13.257-2.63
			c1.877-0.149,3.792-0.274,5.603,0.363c5.199,1.826,9.773,4.483,12.443,9.612c0.945,1.816,2.072,3.525,3.36,5.122
			c2.704,3.352,5.495,6.628,8.578,9.641c3.082,3.012,5.963,6.204,8.703,9.528c0.196,0.238,0.356,0.561,0.753,0.512
			c1.344-1.71,2.481-1.628,3.523,0.272c0.283,0.516,0.506,1.07,0.715,1.622c1.588,4.199,2.61,8.538,3.074,12.998
			c0.2,1.925,0.184,3.869,0.073,5.806c-0.021,0.371-0.069,0.799-0.564,0.842c-0.39,0.034-0.544-0.303-0.67-0.597
			c-0.233-0.543-0.433-1.101-0.657-1.648c-0.236-0.575-0.246-1.254-0.691-1.717c-0.472,0.105-0.512,0.458-0.648,0.735
			c-1.557,3.169-2.207,6.622-3.122,9.993c-0.129,0.474-0.076,0.959,0.003,1.442c0.677,4.119,4.315,7.976,8.399,8.882
			c3.563,0.791,6.498-0.293,8.759-3.102c1.913-2.377,1.524-5.017,0.635-7.661c-0.12-0.356-0.278-0.701-0.448-1.036
			c-0.537-1.055-1.042-2.129-1.643-3.147c-1.434-2.428-2.496-5.007-3.217-7.724c-0.524-1.975-0.984-3.967-1.449-5.958
			c-1.049-4.493-1.769-9.063-3.702-13.329C253.624,295.979,252.198,292.884,249.542,290.516z M235.239,243.279
			c0.429-0.414,0.894-0.225,1.337,0.006c0.678,0.354,1.194,0.906,1.733,1.43c0.342,0.333,0.69,0.66,1.19,1.139
			c-0.019-0.652-0.396-0.891-0.586-1.213c-0.244-0.416-0.545-0.803-0.755-1.235c-0.559-1.149-0.414-2.174,0.352-2.796
			c0.814-0.662,1.88-0.542,2.903,0.38c0.477,0.43,0.928,0.901,1.319,1.409c2.138,2.771,4.045,5.69,5.482,8.893
			c0.306,0.682,0.52,1.408,0.757,2.12c0.104,0.312,0.151,0.678-0.126,0.903c-0.368,0.298-0.728,0.037-1.015-0.191
			c-0.546-0.432-1.063-0.903-1.583-1.368c-0.474-0.425-0.934-0.864-1.4-1.297c-0.106,0.076-0.212,0.153-0.318,0.229
			c0.923,1.226,1.858,2.443,2.764,3.682c0.378,0.518,0.705,1.075,1.025,1.631c0.062,0.109,0.028,0.325-0.042,0.447
			c-0.132,0.232-0.375,0.187-0.566,0.085c-0.283-0.15-0.551-0.331-0.815-0.514c-2.439-1.69-4.631-3.653-6.59-5.886
			c-1.521-1.734-3.206-3.328-4.49-5.265c-0.266-0.401-0.525-0.811-0.731-1.244C234.864,244.161,234.835,243.669,235.239,243.279z
			 M232.056,252.115c0.43-0.37,0.892-0.284,1.342-0.024c0.748,0.433,1.376,1.019,2.012,1.594c0.314,0.284,0.598,0.629,1.077,0.639
			c-1.048-1.005-2.013-2.083-2.845-3.276c-0.432-0.619-0.81-1.27-1.013-2.001c-0.18-0.648-0.207-1.29,0.388-1.766
			c0.603-0.482,1.218-0.317,1.787,0.063c0.444,0.297,0.888,0.612,1.266,0.986c3.14,3.107,5.789,6.616,8.302,10.233
			c0.151,0.217,0.297,0.461,0.358,0.714c0.114,0.472-0.107,0.753-0.6,0.654c-0.586-0.118-1.088-0.452-1.579-0.78
			c-1.333-0.892-2.658-1.796-3.986-2.696c1.502,1.528,3.027,3.035,4.491,4.598c0.429,0.458,1.372,0.951,0.806,1.658
			c-0.419,0.523-1.194-0.087-1.738-0.364c-3.731-1.901-6.756-4.697-9.622-7.686c-0.334-0.348-0.612-0.752-0.754-1.222
			C231.597,252.945,231.64,252.473,232.056,252.115z M187.011,194.293c0.649-0.361,1.492-0.119,2.254,0.774
			c0.627,0.734,1.142,1.562,1.735,2.326c0.216,0.278,0.313,0.706,0.762,0.751c0.184-0.205,0.081-0.417,0.04-0.621
			c-0.161-0.783,0.072-1.407,0.814-1.735c0.748-0.331,1.357,0.021,1.883,0.543c0.19,0.188,0.375,0.393,0.512,0.62
			c2.584,4.285,5.588,8.302,8.042,12.669c0.316,0.562,0.594,1.146,0.861,1.732c0.09,0.198,0.061,0.451-0.164,0.557
			c-0.125,0.059-0.348,0.057-0.453-0.019c-0.39-0.283-0.77-0.586-1.115-0.922c-1.696-1.646-3.329-3.354-5.098-5.012
			c0.469,0.711,0.945,1.418,1.404,2.135c0.579,0.906,1.151,1.818,1.712,2.736c0.191,0.313,0.498,0.683,0.179,1.023
			c-0.408,0.436-0.796,0.021-1.135-0.197c-0.542-0.349-1.086-0.709-1.568-1.133c-3.857-3.39-7.273-7.173-10.136-11.445
			c-0.513-0.766-0.914-1.583-1.139-2.481C186.124,195.497,186.346,194.663,187.011,194.293z M182.819,202.835
			c0.521-0.352,1.026-0.139,1.503,0.159c0.734,0.46,1.374,1.033,1.996,1.629c0.619,0.593,1.241,1.184,1.862,1.776
			c0.058-0.035,0.116-0.069,0.173-0.104c-1.27-1.519-2.545-3.033-3.805-4.559c-0.411-0.498-0.779-1.033-1-1.648
			c-0.258-0.718-0.215-1.387,0.433-1.892c0.548-0.427,1.21-0.325,1.892,0.275c0.2,0.176,0.373,0.387,0.542,0.595
			c3.523,4.342,7.044,8.685,10.563,13.03c0.237,0.292,0.46,0.596,0.673,0.906c0.18,0.262,0.424,0.555,0.179,0.87
			c-0.265,0.34-0.61,0.12-0.867-0.035c-0.734-0.441-1.444-0.924-2.24-1.329c0.284,0.654,0.876,1.069,1.337,1.585
			c0.25,0.28,0.516,0.547,0.756,0.836c0.147,0.176,0.166,0.398,0.044,0.597c-0.135,0.219-0.381,0.234-0.574,0.157
			c-0.598-0.239-1.176-0.526-1.77-0.773c-0.228-0.095-0.43-0.337-0.828-0.133c1.196,0.971,2.354,1.908,3.507,2.851
			c0.29,0.238,0.575,0.486,0.837,0.754c0.15,0.153,0.248,0.367,0.12,0.586c-0.12,0.205-0.334,0.281-0.552,0.226
			c-0.364-0.091-0.728-0.195-1.075-0.337c-4.473-1.828-8.492-4.386-12.115-7.574c-0.483-0.425-0.949-0.88-1.273-1.449
			c-0.277-0.488-0.455-1.014-0.077-1.51c0.398-0.523,0.929-0.423,1.46-0.188c0.181,0.08,0.35,0.265,0.664,0.091
			c-0.6-0.627-1.19-1.235-1.77-1.853c-0.523-0.557-0.941-1.181-1.084-1.947C182.217,203.819,182.25,203.22,182.819,202.835z
			 M95.456,258.773c-0.399-0.142-0.707,0.172-1.069,0.217c-1.315,0.163-2.181-0.755-1.918-2.069c0.175-0.875,0.72-1.554,1.289-2.203
			c1.174-1.339,2.493-2.526,3.913-3.598c3.051-2.302,6.122-4.571,9.702-6.023c0.9-0.365,1.813-0.681,2.772-0.845
			c0.458-0.079,1.022-0.339,1.285,0.252c0.221,0.496-0.283,0.759-0.594,1.024c-1.228,1.046-2.475,2.069-3.712,3.105
			c-0.202,0.169-0.386,0.359-0.578,0.539c0.038,0.082,0.077,0.163,0.115,0.245c1.206-0.558,2.397-1.155,3.626-1.656
			c0.505-0.206,1.26-0.751,1.601-0.165c0.39,0.668-0.547,0.889-0.958,1.232c-3.596,2.993-7.206,5.968-10.819,8.94
			c-0.914,0.752-1.844,1.483-2.902,2.033C95.739,260.564,95.529,260.444,95.456,258.773z M100.026,262.442
			c-0.39,0.257-0.813,0.339-1.196,0.024c-0.369-0.303-0.431-0.724-0.299-1.176c0.264-0.901,0.772-1.678,1.408-2.329
			c3.118-3.193,6.669-5.757,10.896-7.304c0.406-0.148,0.821-0.26,1.26-0.223c0.242,0.02,0.385,0.154,0.422,0.418
			c-0.071,0.451-0.435,0.712-0.757,0.986c-2.292,1.954-4.58,3.915-6.896,5.84c-1.323,1.1-2.698,2.138-4.052,3.199
			C100.559,262.076,100.296,262.265,100.026,262.442z M230.39,324.196c0.079-0.583,0.185-1.171,0.362-1.729
			c0.187-0.59,0.561-1.07,1.263-1.056c0.618,0.013,0.962,0.401,1.136,0.971c0.059,0.195,0.074,0.426,0.34,0.552
			c0.187-0.716,0.326-1.44,0.565-2.129c0.688-1.986,1.701-2.274,3.316-0.972c0.449-0.217,0.422-0.718,0.628-1.078
			c0.8-1.395,1.644-1.404,2.62,0.013c0.411-0.311,0.419-0.853,0.713-1.227c0.359-0.457,0.789-0.743,1.379-0.658
			c0.666,0.096,1.013,0.553,1.184,1.17c0.181,0.65,0.009,1.282-0.11,1.913c-1.261,6.657-2.651,13.285-4.387,19.837
			c-0.165,0.623-0.316,1.251-0.495,1.87c-0.058,0.201-0.169,0.405-0.438,0.398c-0.25-0.006-0.384-0.181-0.468-0.378
			c-0.384-0.906-0.498-1.865-0.504-2.838c-0.008-1.322-0.002-2.645-0.002-3.967c-0.073-0.013-0.146-0.027-0.219-0.04
			c-0.251,0.858-0.485,1.722-0.763,2.571c-0.11,0.336-0.166,0.845-0.637,0.816c-0.574-0.035-0.553-0.602-0.568-0.995
			c-0.042-1.072-0.014-2.147-0.014-3.523c-0.544,0.875-0.51,1.614-0.759,2.256c-0.096,0.248-0.189,0.52-0.513,0.546
			c-0.331,0.026-0.471-0.234-0.578-0.475c-0.307-0.695-0.449-1.43-0.517-2.186c-0.057-0.628-0.165-1.25-0.402-1.861
			c-0.131,0.895-0.258,1.79-0.396,2.683c-0.041,0.262-0.078,0.569-0.398,0.63c-0.42,0.079-0.545-0.281-0.652-0.567
			c-0.399-1.066-0.561-2.188-0.669-3.311C230.179,329.022,230.061,326.607,230.39,324.196z M210.543,279.831
			c0.152,0.028,0.302,0.065,0.591,0.127c-0.204-0.856-0.876-1.617-0.306-2.458c0.564-0.831,1.422-0.512,2.293-0.426
			c-0.164-0.944-0.126-1.742,0.77-2.15c0.849-0.387,1.567-0.017,2.255,0.447c0.584,0.394,1.092,0.877,1.523,1.431
			c2.488,3.195,4.637,6.594,6.176,10.355c0.285,0.698,0.526,1.411,0.611,2.166c0.031,0.274,0.031,0.554-0.226,0.721
			c-0.268,0.174-0.543,0.048-0.736-0.135c-0.778-0.74-1.567-1.473-2.291-2.264c-0.711-0.777-1.347-1.623-2.017-2.438
			c-0.063,0.038-0.126,0.076-0.189,0.114c0.581,1.303,1.183,2.596,1.735,3.912c0.269,0.641,0.453,1.32,0.654,1.988
			c0.079,0.263,0.078,0.583-0.185,0.723c-0.345,0.184-0.615-0.067-0.827-0.315c-0.663-0.777-1.319-1.56-1.967-2.349
			c-0.677-0.825-1.342-1.661-2.266-2.343c0.303,0.504,0.615,1.004,0.908,1.514c0.724,1.261,1.414,2.539,1.744,3.971
			c0.072,0.312,0.118,0.663-0.23,0.856c-0.269,0.149-0.521-0.006-0.748-0.151c-0.595-0.38-1.101-0.861-1.535-1.414
			c-2.422-3.094-4.633-6.333-6.694-9.676c-0.141-0.228-0.278-0.465-0.367-0.716C208.809,280.168,209.312,279.607,210.543,279.831z
			 M209.338,284.176c0.438,0,0.746,0.212,0.992,0.503c1.979,2.342,3.573,4.932,4.93,7.675c0.121,0.245,0.208,0.543-0.038,0.735
			c-0.247,0.193-0.519,0.035-0.714-0.151c-0.657-0.628-1.315-1.255-1.941-1.913c-1.182-1.241-2.224-2.599-3.237-3.98
			c-0.381-0.519-0.734-1.069-0.806-1.726C208.458,284.709,208.717,284.286,209.338,284.176z M154.83,379.322
			c-0.45-0.166-0.903-0.354-1.307-0.608c-3.664-2.311-6.758-5.272-9.603-8.508c-0.39-0.444-0.697-0.952-0.82-1.549
			c-0.081-0.397-0.017-0.761,0.294-1.028c0.369-0.316,0.794-0.302,1.2-0.073c0.231,0.13,0.454,0.291,0.644,0.476
			c3.226,3.144,6.603,6.142,9.425,9.679c0.3,0.375,0.651,0.72,0.732,1.227C155.329,379.246,155.134,379.434,154.83,379.322z
			 M141.789,299.574c-1-0.384-1.197-1.25-0.451-2.027c0.615-0.641,1.443-0.918,2.262-1.181c1.847-0.595,3.766-0.861,5.67-1.192
			c2.767-0.481,5.555-0.542,8.35-0.392c1.131,0.061,2.24,0.269,3.299,0.685c0.252,0.099,0.486,0.262,0.501,0.566
			c0.017,0.321-0.221,0.48-0.484,0.561c-0.564,0.173-1.13,0.342-1.705,0.471c-4.193,0.936-8.409,1.746-12.647,2.452
			c-0.851,0.142-1.701,0.237-2.732,0.255C143.272,299.765,142.509,299.851,141.789,299.574z M162.983,304.388
			c-1.273,0.701-2.672,1.092-4.019,1.609c-1.304,0.5-2.668,0.786-4.038,1.029c-1.498,0.265-2.535-0.116-2.757-0.965
			c-0.234-0.893,0.546-1.859,1.972-2.361c1.834-0.646,3.728-0.952,5.404-0.893c1.287,0.016,2.309-0.05,3.295,0.283
			c0.31,0.105,0.649,0.213,0.691,0.58C163.574,304.04,163.268,304.232,162.983,304.388z M163.464,299.621
			c0.033,0.459-0.361,0.645-0.701,0.781c-1.197,0.479-2.4,0.946-3.614,1.38c-2.789,0.997-5.65,1.733-8.556,2.301
			c-0.857,0.168-1.708,0.229-2.545-0.077c-1.2-0.44-1.48-1.394-0.688-2.405c0.658-0.841,1.596-1.268,2.585-1.557
			c2.95-0.864,5.942-1.492,8.586-1.457c1.688,0.043,2.934-0.037,4.131,0.358C163.013,299.06,163.431,299.163,163.464,299.621z
			 M137.243,293.236c0.848-0.69,1.85-1.079,2.887-1.383c3.004-0.88,6.087-1.322,9.193-1.59c1.603-0.138,3.198-0.436,4.712-0.337
			c2.003-0.086,3.854,0.232,5.688,0.662c0.519,0.122,1.02,0.33,1.517,0.529c0.304,0.122,0.612,0.329,0.615,0.681
			c0.005,0.462-0.404,0.626-0.766,0.704c-2.098,0.456-4.186,0.995-6.308,1.3c-4.255,0.612-8.456,1.513-12.694,2.211
			c-0.9,0.148-1.806,0.275-2.713,0.369c-0.422,0.044-0.862,0.032-1.282-0.034c-0.709-0.111-1.393-0.337-1.614-1.131
			C136.249,294.389,136.622,293.741,137.243,293.236z M131.819,359.438c0.511-0.376,1.036-0.227,1.469,0.164
			c0.397,0.359,0.755,0.762,1.109,1.166c3.541,4.042,6.835,8.286,10.203,12.47c1.919,2.385,3.903,4.718,5.859,7.072
			c0.307,0.37,0.665,0.704,0.772,1.154c-0.071,0.483-0.386,0.551-0.722,0.484c-0.802-0.16-1.521-0.535-2.197-0.977
			c-1.853-1.212-3.498-2.676-4.99-4.305c-3.376-3.688-6.564-7.532-9.42-11.641c-0.674-0.97-1.305-1.969-1.927-2.973
			c-0.224-0.362-0.387-0.767-0.535-1.169C131.236,360.327,131.33,359.798,131.819,359.438z M111.62,271.431
			c0.19-0.885,0.781-1.519,1.42-2.101c2.231-2.031,4.923-3.237,7.735-4.181c2.494-0.837,5.05-1.462,7.63-1.987
			c2.286-0.465,4.589-0.483,6.894-0.309c0.654,0.049,1.659-0.029,1.803,0.729c0.162,0.854-0.876,0.955-1.468,1.18
			c-2.91,1.103-5.837,2.163-8.776,3.19c-3.656,1.277-7.147,2.933-10.652,4.559c-0.922,0.428-1.836,0.89-2.673,1.045
			C112.131,273.6,111.357,272.657,111.62,271.431z M135.025,278.379c-2.357,1.271-4.751,2.463-7.354,3.161
			c-0.302,0.081-0.639,0.085-0.953,0.053c-0.512-0.052-0.913-0.312-1.082-0.826c-0.15-0.457,0.038-0.84,0.335-1.174
			c0.325-0.367,0.742-0.613,1.18-0.818c2.213-1.033,4.57-1.479,6.958-1.717c0.235,0.014,0.451,0.013,0.662,0.041
			c0.32,0.044,0.699,0.089,0.81,0.422C135.731,277.97,135.347,278.205,135.025,278.379z M135.001,273.183
			c-0.232,0.135-0.477,0.25-0.723,0.358c-3.694,1.618-7.4,3.209-11.181,4.617c-0.552,0.205-1.126,0.35-1.531,0.473
			c-1.204-0.017-1.759-0.955-1.316-1.957c0.372-0.841,1.133-1.28,1.886-1.693c2.137-1.173,4.437-1.927,6.797-2.486
			c1.096-0.259,2.219-0.428,3.339-0.556c0.797-0.091,1.609-0.066,2.414-0.054c0.375,0.005,0.823,0.077,0.941,0.483
			C135.76,272.823,135.32,272.997,135.001,273.183z M138.239,268.798c-0.204,0.069-0.409,0.133-0.617,0.189
			c-5.299,1.413-10.559,2.951-15.716,4.831c-1.309,0.477-2.68,0.788-4.025,1.162c-0.309,0.086-0.629,0.148-0.948,0.172
			c-0.397,0.029-0.743-0.115-0.962-0.471c-0.262-0.426-0.158-0.838,0.125-1.197c0.585-0.742,1.42-1.133,2.246-1.525
			c2.538-1.204,5.211-2.029,7.929-2.689c3.182-0.773,6.348-1.674,9.665-1.644c0.699,0,1.398-0.024,2.095,0.009
			c0.408,0.02,0.971-0.028,1.021,0.535C139.094,268.632,138.587,268.681,138.239,268.798z M218.38,268.536
			c-0.351-0.124-0.698-0.285-1.014-0.483c-1.05-0.659-2.045-1.398-2.938-2.26c-1.897-1.83-3.819-3.64-5.506-5.671
			c-0.457-0.55-1.212-1.303-0.572-1.966c0.683-0.707,1.405,0.112,1.926,0.575c2.941,2.608,5.761,5.339,8.173,8.461
			c0.23,0.297,0.475,0.589,0.517,0.986C218.894,268.501,218.675,268.641,218.38,268.536z M223.413,266.818
			c-0.411,0.409-0.814,0.052-1.163-0.147c-1.17-0.67-2.257-1.467-3.261-2.362c-3.697-3.297-7.167-6.817-10.238-10.712
			c-0.819-1.039-1.083-1.709-1.078-2.298c0.008-0.943,0.723-1.507,1.619-1.213c0.398,0.13,0.786,0.365,1.109,0.635
			c4.514,3.782,8.539,8.019,11.846,12.907c0.449,0.663,0.782,1.409,1.126,2.137C223.526,266.09,223.741,266.492,223.413,266.818z
			 M227.302,265.569c-0.184,0.127-0.424,0.035-0.599-0.094c-0.474-0.351-0.943-0.709-1.401-1.08c-3.23-2.613-5.892-5.789-8.7-8.817
			c-2.591-2.793-5.102-5.66-7.648-8.494c-0.54-0.601-1.087-1.206-1.246-2.032c-0.169-0.882,0.387-1.589,1.172-1.539
			c0.619,0.091,1.065,0.497,1.512,0.874c2.673,2.255,5.131,4.737,7.432,7.359c3.186,3.633,6.224,7.391,8.746,11.533
			c0.306,0.502,0.56,1.038,0.821,1.566C227.513,265.095,227.564,265.388,227.302,265.569z M257.824,318.926
			c-0.06,0.46-0.162,1.366-0.306,2.265c-0.04,0.253-0.175,0.522-0.516,0.51c-0.248-0.009-0.388-0.197-0.455-0.398
			c-0.24-0.711-0.495-1.421-0.674-2.149c-0.989-4.011-1.933-8.034-2.943-12.04c-0.433-1.716-0.992-3.399-1.489-5.099
			c-0.105-0.36-0.22-0.722-0.278-1.091c-0.101-0.651,0.154-1.172,0.731-1.481c0.659-0.353,1.26-0.164,1.751,0.347
			c0.533,0.555,0.786,1.275,1.054,1.976c1.08,2.82,1.701,5.759,2.247,8.718C257.433,313.128,257.707,315.794,257.824,318.926z"/>
		<path style="fill:#FFFFFF;" d="M315.834,218.217c5.037-5.711,6.097-12.225,3.252-19.212c-1.857-4.562-5.492-7.575-9.777-9.898
			c-3.131-1.699-6.458-2.132-9.852-1.609c-9.642,1.486-15.737,8.833-15.752,18.107c-0.355,10.134,7.992,20.314,21.215,18.666
			C309.296,223.725,312.931,221.508,315.834,218.217z M308.695,219.432c-9.789,4.628-20.068-1.918-21.596-11.611
			c-0.799-5.069,1.614-12.042,7.731-15.006c2.183-1.058,4.297-2.215,6.76-2.485c1.283-0.141,2.524-0.081,3.865,0.535
			c-0.785,0.696-1.485,1.254-2.113,1.885c-1.572,1.578-1.871,3.463-0.92,5.464c0.843,1.774,2.754,2.936,4.539,2.76
			c1.943-0.192,3.669-1.717,4.265-3.661c0.314-1.025,0.117-2.112,0.369-3.094c0.581-0.148,0.792,0.229,1.043,0.477
			C320.777,202.724,317.87,215.094,308.695,219.432z"/>
		<path style="fill:#FFFFFF;" d="M357.884,235.125c5.225-9.731,7.43-20.206,6.883-31.274c-0.205-4.159-0.764-8.244-1.738-12.274
			c-3.324-13.746-10.344-25.193-21.48-33.984c-6.305-4.978-13.39-8.559-20.98-11.179c-8.37-2.889-16.992-3.858-25.763-3.166
			c-6.08,0.48-11.928,2.08-17.602,4.432c-8.172,3.387-15.443,8.072-21.589,14.411c-5.363,5.532-9.462,11.94-12.696,18.943
			c-3.756,8.134-5.97,16.574-5.71,25.588c0.017,2.47,0.045,4.936,0.329,7.404c0.724,6.294,2.31,12.359,4.603,18.251
			c0.176,0.451,0.323,0.937,0.749,1.217c1.583,1.042,2.877,2.399,4.245,3.692c1.417,1.338,2.783,2.697,3.873,4.305
			c1.902,2.804,3.754,5.642,5.638,8.459c1.231,1.841,2.637,3.515,4.361,4.939c1.491,1.231,2.993,2.493,4.251,3.949
			c1.512,1.75,3.388,2.939,5.32,4.075c4.115,2.42,8.625,3.867,13.186,5.157c1.239,0.35,2.507,0.745,3.777,0.805
			c2.482,0.119,4.909,0.581,7.363,0.869c1.706,0.2,3.431,0.401,5.141,0.362c3.653-0.083,7.309-0.234,10.923-0.869
			c2.964-0.521,5.964-0.867,8.809-1.93c3.327-1.243,6.589-2.625,9.79-4.177C342.201,257.009,351.335,247.322,357.884,235.125z
			 M322.623,258.698c-7.969,3.404-16.302,4.699-24.909,4.171c-9.108-0.559-17.677-3.107-25.598-7.632
			c-6.703-3.829-12.043-9.184-16.343-15.551c-4.541-6.723-7.585-14.092-9.07-22.084c-0.187-1.004-0.346-2.014-0.48-3.026
			c-0.333-2.51-0.439-5.034-0.408-6.658c-0.052-8.706,1.411-16.193,4.592-23.332c0.658-1.477,1.372-2.926,2.229-4.293
			c2.143-3.416,4.241-6.861,6.716-10.058c2.495-3.223,5.535-5.864,8.84-8.202c7.678-5.43,16.126-8.945,25.463-10.368
			c9.711-1.479,19.084-0.484,28.129,3.38c11.368,4.856,20.539,12.348,26.792,23.068c3.902,6.691,6.386,13.974,7.542,21.669
			c0.311,2.073,0.552,4.149,0.613,6.253c0.244,8.46-1.767,16.403-5.27,24.046c-2.529,5.516-5.618,10.644-9.752,15.119
			C336.3,251.057,329.955,255.566,322.623,258.698z"/>
		<path style="fill:#FFFFFF;" d="M423.72,237.858c-0.379-1.662-0.69-1.986-2.302-1.671c-1.572,0.307-3.184,0.36-4.726,0.907
			c-1.567,0.555-3.194,0.959-4.818,1.329c-8.701,1.981-17.456,3.706-26.07,6.087c-7.2,1.991-14.547,3.443-21.73,5.513
			c-3.924,1.13-7.752,2.601-11.817,3.2c-0.698,0.103-1.15,0.534-1.609,0.993c-3.429,3.436-7.158,6.511-11.139,9.285
			c-0.286,0.199-0.723,0.287-0.747,0.803c0.604,0.228,1.157-0.045,1.705-0.194c4.726-1.29,9.53-2.22,14.343-3.107
			c2.274-0.419,4.562-0.758,6.772-1.469c5.378-1.729,10.823-3.215,16.316-4.534c3.762-0.903,7.389-2.347,11.246-2.865
			c3.202-0.43,6.357-1.081,9.495-1.837c1.724-0.415,3.46-0.797,5.21-1.079c6.495-1.047,12.792-2.892,19.101-4.684
			c1.703-0.484,1.883-0.942,1.636-2.741C424.402,240.455,424.019,239.167,423.72,237.858z"/>
		<g>
			<path d="M427.107,234.284c-0.881-1.612-2.21-2.403-4.132-2.154c-1.328,0.172-1.364,0.095-1.696-1.289
				c-0.604-2.51-1.175-5.028-1.76-7.542c-0.915-3.933-2.335-7.723-3.318-11.637c-1.965-7.826-3.949-15.646-5.898-23.476
				c-1.235-4.958-2.381-9.938-3.639-14.89c-2.251-8.863-5.009-17.591-7.139-26.486c-1.041-4.346-2.324-8.623-3.485-12.934
				c-0.226-0.841-0.404-1.669-0.078-2.53c0.77-2.036,0.667-4.144,0.281-6.209c-0.563-3.012-1.186-6.021-1.971-8.982
				c-1.929-7.279-3.95-14.534-5.969-21.789c-0.576-2.071-1.207-4.131-2.167-6.072c-0.61-1.234-1.428-2.279-2.613-3.001
				c-2.093-1.275-4.246-2.348-6.82-2.035c-0.423,0.051-0.86-0.006-1.29-0.022c-1.456-0.056-1.429-0.07-1.856-1.482
				c-0.497-1.644-0.895-3.32-1.637-4.888c-0.633-1.339-1.641-2.084-3.113-2.229c-0.533-0.053-1.082-0.096-1.588-0.258
				c-1.951-0.623-3.921-0.553-5.909-0.269c-2.502,0.357-4.9,1.24-7.44,1.427c-2.15,0.159-4.275,0.557-6.324,1.223
				c-2.515,0.817-5.071,1.397-7.677,1.834c-6.028,1.011-11.739,3.114-17.423,5.274c-1.612,0.613-3.08,1.535-4.534,2.459
				c-1.463,0.93-2.079,2.215-1.764,3.984c0.331,1.858,0.733,3.69,1.31,5.487c0.412,1.283,0.339,1.333-0.864,1.691
				c-8.409,2.499-16.98,4.367-25.471,6.546c-5.836,1.498-11.797,2.44-17.634,3.942c-9.324,2.4-18.6,4.987-27.981,7.16
				c-1.678,0.389-1.627,0.689-2.557-0.977c-0.938-1.681-2.383-2.699-4.165-3.376c-2.831-1.075-5.664-1.091-8.552-0.315
				c-4.62,1.24-9.418,1.76-13.932,3.431c-0.714,0.264-1.134,0.051-1.279-0.712c-0.06-0.315-0.16-0.627-0.275-0.927
				c-1.14-2.973-3.102-4.971-6.376-5.496c-1.285-0.206-2.568-0.243-3.859-0.247c-2.528-0.008-5.069,0.14-7.583-0.054
				c-4.778-0.369-9.475-1.293-14.153-2.343c-4.93-1.107-9.794-2.522-14.812-3.238c-4.196-0.599-8.11,0.096-11.814,2.216
				c-2.145,1.227-3.908,2.86-5.519,4.667c-3.832,4.3-8.189,8.068-12.282,12.1c-2.67,2.63-5.602,5.038-8.715,7.172
				c-4.265,2.922-8.291,6.159-12.418,9.263c-3.956,2.975-7.583,6.361-11.638,9.217c-2.152,1.515-3.682,3.601-4.643,6.075
				c-2.069,5.326-2.831,10.783-1.809,16.46c0.723,4.02,1.383,8.044,1.586,12.145c0.119,2.415,0.159,4.837,0.333,7.25
				c0.338,4.678,0.249,9.348-0.237,14.015c-0.418,4.01-0.826,8.022-1.151,12.041c-0.464,5.744-1.193,11.438-2.569,17.046
				c-0.961,3.917-1.821,7.86-2.642,11.809c-0.265,1.275-0.745,2.235-1.832,3.048c-1.844,1.38-3.627,2.838-4.983,4.78
				c-3.519,5.038-4.843,10.717-5.151,16.731c-0.205,4.012,0.765,7.788,2.208,11.478c1.175,3.006,2.388,5.998,3.514,9.023
				c2.627,7.058,5.1,14.176,7.847,21.186c2.158,5.506,4.675,10.871,7.058,16.284c4.188,9.515,9.064,18.684,15.052,27.217
				c0.909,1.295,1.586,2.669,2.041,4.178c1.087,3.605,2.211,7.199,3.309,10.801c2.213,7.259,3.791,14.688,5.837,21.991
				c2.552,9.111,7.322,16.793,14.786,22.749c3.286,2.622,6.734,5.001,10.173,7.406c2.564,1.793,5.22,3.413,8.016,4.815
				c5.069,2.541,10.382,4.446,15.795,6.083c6.917,2.092,13.92,2.604,21.041,1.13c9.959-2.061,18.742-6.563,26.634-12.862
				c5.234-4.178,8.475-9.676,10.018-16.158c0.635-2.665,1.218-5.375,1.335-8.109c0.081-1.878,0.809-3.346,1.667-4.927
				c3.881-7.151,7.302-14.523,9.618-22.342c1.702-5.745,2.559-11.653,2.743-17.648c0-1.022-0.006-2.044,0.003-3.067
				c0.004-0.495,0.261-0.685,0.735-0.525c0.611,0.206,1.209,0.456,1.828,0.636c4.595,1.342,8.622,0.5,11.886-3.156
				c0.787-0.882,1.558-1.785,2.259-2.736c1.64-2.225,2.215-4.74,1.917-7.476c-0.253-2.33-0.854-4.578-2.027-6.591
				c-2.2-3.778-3.386-7.896-4.344-12.103c-0.919-4.038-1.685-8.111-2.933-12.07c-0.175-0.557-0.216-1.159-0.289-1.744
				c-0.392-3.169-0.982-6.266-2.757-9.022c-1.184-1.839-1.153-1.907,0.938-2.297c5.71-1.064,11.415-2.157,17.038-3.61
				c5.416-1.399,10.816-2.869,16.185-4.436c6.717-1.961,13.564-3.411,20.301-5.283c11.715-3.255,23.552-6.013,35.414-8.67
				c4.882-1.094,9.872-1.646,14.713-2.93c7.642-2.027,15.279-4.074,22.9-6.178c5.921-1.634,12.08-2.097,17.998-3.737
				c1.084-0.301,2.215-0.437,3.324-0.644c6.571-1.226,12.966-3.109,19.305-5.194c0.926-0.304,1.753-0.776,2.417-1.541
				c1.276-1.472,1.78-3.083,1.476-5.06C429.055,239.145,428.384,236.621,427.107,234.284z M393.131,135.956
				c1.208,5.956,2.269,11.947,3.666,17.859c1.782,7.536,3.899,14.992,5.759,22.51c2.545,10.285,5.295,20.522,7.398,30.912
				c0.458,2.263,0.73,4.565,1.09,6.848c0.236,1.492,0.604,2.954,1.117,4.373c1.463,4.051,2.525,8.227,3.876,12.313
				c0.726,2.195,0.676,2.211-1.471,2.83c-2.398,0.691-2.485,0.576-3.272-1.99c-3.051-9.942-4.926-20.158-7.067-30.31
				c-1.421-6.735-2.425-13.569-4.104-20.235c-2.323-9.228-5.025-18.364-8.503-27.248c-1.176-3.003-2.08-6.113-3.524-9.013
				c-0.239-0.481-0.431-0.995-0.834-1.37c-0.53-0.495-1.099-0.426-1.485,0.191c-0.354,0.567-0.403,1.216-0.406,1.868
				c-0.008,1.566,0.205,3.116,0.44,4.655c0.321,2.101,0.314,4.171-0.102,6.255c-0.442,2.217-0.922,4.421-1.641,6.57
				c-0.388,1.16-1.09,2.045-1.98,2.878c-3.904,3.649-8.704,4.124-13.693,3.999c-0.555-0.014-1.046-0.208-1.482-0.559
				c-3.95-3.187-7.249-6.9-9.221-11.642c-1.225-2.945-1.116-3.125,1.866-3.944c3.329-0.915,6.566-2.071,9.653-3.624
				c0.575-0.29,1.132-0.619,1.681-0.958c0.271-0.168,0.578-0.405,0.433-0.769c-0.131-0.328-0.506-0.421-0.825-0.395
				c-1.178,0.096-2.353,0.226-3.528,0.356c-5.522,0.611-10.878,2.077-16.306,3.173c-1.685,0.34-3.343,0.816-5.012,1.238
				c-0.524,0.133-1.045,0.32-1.54-0.07c-2.061-1.624-4.089-3.29-6.514-4.956c1.592-0.717,2.957-0.718,4.257-0.907
				c6.66-0.968,13.216-2.442,19.77-3.927c4.721-1.07,9.309-2.666,14.05-3.663c5.226-1.099,10.259-2.842,15.306-4.539
				C392.753,134.07,392.747,134.064,393.131,135.956z M317.434,121.708c0.222,0.718,0.529,1.409,0.781,2.118
				c1.804,5.074,2.726,10.404,4.461,15.499c0.112,0.329,0.323,0.698,0.067,1.096c-0.604,0.184-1.138-0.132-1.691-0.287
				c-5.458-1.531-11.001-2.417-16.68-2.685c-10.282-0.484-20.149,1.398-29.682,5.041c-6.371,2.434-12.109,6.077-17.393,10.384
				c-4.096,3.339-7.8,7.091-11.085,11.237c-0.703,0.888-1.437,1.451-2.633,1.598c-1.484,0.182-2.928,0.682-4.394,1.02
				c-0.938,0.216-1.14,0.103-1.392-0.816c-1.363-4.968-3.383-9.736-4.489-14.784c-0.299-1.364-0.735-2.702-0.856-4.1
				c-0.094-1.092,0.062-1.292,1.114-1.624c0.82-0.259,1.655-0.473,2.482-0.708c8.483-2.41,16.962-4.835,25.451-7.225
				c3.632-1.022,7.14-2.39,10.663-3.714c4.189-1.574,8.513-2.676,12.814-3.867c8.862-2.453,17.718-4.928,26.573-7.404
				c0.514-0.144,1.012-0.358,1.501-0.576c0.19-0.085,0.333-0.275,0.309-0.521c-0.031-0.319-0.263-0.449-0.532-0.517
				c-0.433-0.11-0.854,0.027-1.276,0.097c-7.377,1.229-14.668,2.838-21.924,4.662c-8.51,2.139-16.94,4.506-25.224,7.404
				c-4.724,1.652-9.619,2.738-14.42,4.138c-5.937,1.732-11.867,3.489-17.799,5.237c-0.103,0.03-0.203,0.071-0.305,0.105
				c-2.744,0.921-3.152,1.626-2.685,4.547c0.392,2.454,1.155,4.809,1.886,7.172c0.397,1.285,0.833,2.558,1.208,3.848
				c0.44,1.515,1.121,2.906,2.013,4.201c0.905,1.314,1.353,2.794,1.612,4.351c0.107,0.645-0.078,1.045-0.737,1.191
				c-0.262,0.058-0.519,0.139-0.78,0.206c-1.534,0.392-1.5,0.376-2.005-1.145c-2.345-7.058-3.926-14.31-5.519-21.559
				c-0.346-1.574-0.597-3.171-0.826-4.767c-0.225-1.568-0.101-1.67,1.414-2.128c5.566-1.684,11.309-2.636,16.927-4.115
				c11.598-3.054,23.152-6.258,34.686-9.551c9.77-2.789,19.548-5.583,29.486-7.759c5.364-1.174,10.574-2.929,15.788-4.63
				c10.387-3.389,20.932-6.21,31.514-8.898c3.019-0.767,6.102-1.269,9.187-1.732c1.329-0.199,2.652-0.444,3.979-0.659
				c1.439-0.234,1.538-0.201,2.031,1.135c1.454,3.936,2.8,7.909,3.945,11.948c0.881,3.106,1.729,6.215,2.141,9.429
				c0.233,1.824,0.717,3.586,1.59,5.222c0.391,0.732,0.469,1.525,0.536,2.336c0.057,0.69-0.253,0.99-0.859,1.126
				c-0.525,0.118-1.046,0.253-1.569,0.374c-2.026,0.469-2.154,0.429-2.542-1.658c-1.361-7.31-3.263-14.477-5.582-21.537
				c-0.303-0.922-0.644-1.822-1.129-2.669c-0.702-1.225-1.74-1.74-3.112-1.46c-1.105,0.226-2.192,0.54-3.284,0.825
				c-7.806,2.035-15.623,4.03-23.414,6.122c-6.077,1.632-12.124,3.373-18.178,5.091C317.677,117.916,316.811,119.69,317.434,121.708
				z M215.005,185.458c0.454,0.832,1.307,0.675,2.02,0.579c1.969-0.266,3.925-0.631,5.888-0.943c1.28-0.204,1.571,0.095,1.233,1.36
				c-0.453,1.694-1.394,3.147-2.472,4.495c-2.764,3.457-5.869,6.582-9.392,9.27c-1.11,0.846-2.117,1.836-3.35,2.514
				c-1.332,0.731-1.533,0.726-2.376-0.505c-2.287-3.338-5.007-6.32-7.631-9.379c-2.671-3.114-6.192-4.928-9.974-6.314
				c-0.434-0.159-0.951-0.148-1.296-0.553c1.242-0.703,48.635-13.589,51.234-13.916c0.005,0.96-0.53,1.725-0.828,2.541
				c-1.091,2.985-0.474,2.537-3.716,3.225c-6.19,1.314-12.014,3.703-17.866,6.01C215.253,184.326,214.726,184.945,215.005,185.458z
				 M368.983,130.059c0.344-0.409,0.664-0.207,0.833,0.245c0.037,0.1,0.055,0.208,0.089,0.31c1.074,3.203,1.074,3.202-2.166,4.001
				c-0.823,0.203-1.645,0.409-2.468,0.614c-0.065-0.102-0.129-0.204-0.194-0.305C366.238,133.193,367.646,131.652,368.983,130.059z
				 M364.47,116.556c-0.532,0.349-1.001,0.818-1.433,1.292c-2.936,3.222-6.064,6.253-9.243,9.229
				c-3.989,3.734-7.455,7.902-10.336,12.534c-0.904,1.454-2.037,2.098-4.04,1.996c7.947-10.358,16.602-19.72,25.429-28.828
				c0.593,0.228,0.571,0.603,0.639,0.891C365.961,115.674,366.066,115.509,364.47,116.556z M327.924,134.44
				c3.811-4.934,7.3-10.11,11.312-14.895c3.471-4.14,3.421-4.185,8.63-5.448c2.037-0.494,4.08-0.961,6.121-1.436
				c0.3-0.07,0.608-0.248,1.03,0.1c-0.512,0.662-1.039,1.322-1.544,1.999c-3.378,4.529-7.286,8.618-10.783,13.05
				c-3.432,4.349-6.711,8.808-9.803,13.404c-0.449,0.668-0.85,1.37-1.239,2.075c-0.324,0.589-0.723,0.658-1.335,0.422
				c-1.675-0.646-2.894-1.539-3.402-3.479C326.076,137.043,325.906,137.052,327.924,134.44z M320.966,89.004
				c4.145-1.825,8.44-3.191,12.844-4.232c3.451-0.816,6.91-1.571,10.43-2.049c2.398-0.325,4.649-1.332,7.058-1.643
				c1.277-0.165,2.548-0.398,3.83-0.504c1.511-0.125,2.978-0.41,4.412-0.887c1.693-0.564,3.461-0.744,5.127-1.043
				c0.934,0.108,1.787,0.204,2.639,0.307c0.412,0.05,0.678,0.304,0.846,0.665c0.113,0.243,0.234,0.488,0.305,0.745
				c1.214,4.402,1.174,3.534-2.324,4.916c-1.663,0.657-3.422,0.922-5.151,1.304c-5.617,1.242-11.124,2.921-16.721,4.232
				c-6.125,1.435-12.141,3.267-18.226,4.844c-1.09,0.283-2.215,0.43-3.311,0.691c-0.819,0.195-1.351,0.009-1.597-0.853
				c-0.441-1.55-0.982-3.074-1.204-4.679C319.753,89.577,319.79,89.521,320.966,89.004z M246.089,120.875
				c9.772-2.791,19.563-5.525,29.397-8.09c11.237-2.931,22.53-5.641,33.848-8.259c16.497-3.816,33.017-7.571,49.241-12.476
				c4.273-1.292,8.665-2.143,12.931-3.471c2.146-0.668,4.405-0.519,6.566-0.22c1.613,0.223,2.897,1.279,3.471,3.008
				c1.22,3.68,2.163,7.434,3.116,11.187c0.755,2.971,1.464,5.954,2.289,8.905c1,3.574,2.03,7.134,2.702,10.793
				c0.3,1.633,0.885,3.212,1.26,4.834c0.313,1.355,0.241,1.478-1.017,1.915c-1.624,0.565-3.265,1.09-4.921,1.553
				c-1.013,0.283-1.269,0.146-1.488-0.884c-1.117-5.266-3.098-10.292-4.215-15.564c-0.992-4.686-2.52-9.233-4.189-13.725
				c-0.187-0.503-0.395-1.003-0.642-1.479c-0.764-1.476-1.914-2.269-3.652-2.079c-3.525,0.385-7.096,0.533-10.491,1.671
				c-4.404,1.477-8.976,2.214-13.5,3.152c-5.748,1.191-11.413,2.64-16.983,4.516c-6.574,2.215-13.147,4.458-19.864,6.207
				c-4.683,1.219-9.439,2.154-14.124,3.367c-10.206,2.642-20.343,5.527-30.464,8.483c-10.634,3.105-21.33,6.008-32.193,8.243
				c-1.528,0.314-3.032,0.726-4.517,1.212c-1.276,0.417-2.565,0.792-3.898,1.017c-2.623,0.443-3.676,1.887-3.313,4.561
				c0.246,1.811,0.574,3.611,0.861,5.416c0.964,6.06,2.305,12.041,3.876,17.968c0.509,1.92,1.245,3.779,1.836,5.679
				c0.336,1.08,0.262,1.251-0.774,1.495c-9.063,2.132-17.851,5.252-26.891,7.464c-10.447,2.557-20.733,5.735-31.224,8.124
				c-3.777,0.86-7.514,1.868-11.247,2.897c-0.466,0.128-0.944,0.215-1.414,0.331c-0.523,0.13-0.839-0.076-0.944-0.589
				c-0.151-0.737-0.261-1.482-0.426-2.216c-1.27-5.642-3.26-11.034-5.792-16.22c-1.815-3.719-1.804-4.137,0.568-7.443
				c2.452-3.417,5.22-6.558,8.054-9.656c3.304-3.611,6.563-7.263,10.086-10.666c0.387-0.374,0.76-0.761,1.139-1.143
				c1.661-1.676,3.544-2.79,6.031-2.439c0.422,0.059,0.86,0.008,1.619,0.008c4.693,0.188,9.547-0.767,14.201-2.528
				c3.552-1.344,7.225-2.139,10.913-2.795c6.96-1.238,13.721-3.185,20.439-5.299C230.204,125.17,238.178,123.134,246.089,120.875z
				 M213.574,121.797c0.761-2.17,2.398-2.73,4.416-3.039c3.127-0.48,6.237-1.09,9.337-1.724c1.891-0.387,3.76-0.89,5.622-1.401
				c1.89-0.519,3.603,0.029,5.299,0.754c0.119,0.051,0.177,0.243,0.336,0.477c-0.14,0.09-0.261,0.214-0.406,0.254
				c-8.74,2.41-17.481,4.813-26.387,7.261C212.432,123.48,213.249,122.725,213.574,121.797z M101.178,238.502
				c0.901-3.167,1.271-6.434,1.782-9.671c0.929-5.895,1.57-11.829,2.164-17.766c0.155-1.548,0.14-3.118,0.12-4.677
				c-0.052-4.198,0.154-8.37,0.668-12.546c0.721-5.855,0.495-11.705-0.794-17.484c-0.929-4.161-1.272-8.39-1.539-12.63
				c-0.246-3.9,0.877-7.424,2.929-10.708c0.793-1.269,1.929-2.167,3.053-3.075c7.323-5.915,14.518-11.984,21.714-18.051
				c2.712-2.286,5.362-4.647,7.946-7.087c2.186-2.065,4.438-4.072,6.713-6.039c2.295-1.984,4.27-4.244,6.252-6.507
				c0.922-1.053,1.867-2.08,2.834-3.09c1.966-2.051,4.41-2.969,7.196-3.187c4.512-0.353,8.883,0.464,13.26,1.407
				c5.572,1.2,11.179,2.314,16.878,2.622c4.621,0.25,9.167,1.231,13.808,1.216c1.356-0.004,2.775,0.152,3.46,1.593
				c0.832,1.75,1.266,3.574,0.2,5.401c-1.984,3.399-4.779,5.901-8.346,7.583c-6.657,3.139-13.623,5.289-20.843,6.657
				c-1.815,0.344-3.653,0.29-5.472,0.202c-3.638-0.176-6.441,1.322-8.748,4.003c-0.665,0.773-1.398,1.491-2.117,2.216
				c-4.241,4.282-8.415,8.634-12.225,13.301c-2.65,3.245-5.075,6.676-7.491,10.109c-1.496,2.127-1.728,4.351-1.111,6.747
				c0.59,2.296,1.538,4.476,2.377,6.686c2.086,5.489,3.824,11.08,5.167,16.794c0.998,4.246,0.917,8.523,0.353,12.818
				c-0.108,0.823-0.546,1.363-1.071,1.916c-4.322,4.556-9.255,8.388-14.527,11.734c-7.31,4.64-14.768,9.046-22.17,13.542
				c-0.676,0.41-1.345,0.863-2.09,1.04c-0.36-0.343-0.207-0.674-0.184-0.978c0.153-2.037,0.327-4.073,0.47-6.111
				c0.046-0.654,0.45-1.625-0.404-1.814c-0.789-0.175-0.956,0.861-1.236,1.462c-0.798,1.711-1.322,3.522-1.82,5.339
				c-0.122,0.444-0.237,0.89-0.549,1.292c0.146-1.492,0.262-2.988,0.446-4.475c0.338-2.733,0.24-5.479,0.283-8.22
				c0.005-0.319-0.005-0.661-0.113-0.953c-0.139-0.38-0.458-0.438-0.752-0.145c-0.352,0.351-0.486,0.83-0.653,1.283
				c-1.551,4.199-2.594,8.537-3.506,12.91c-0.296,1.421-0.622,2.84-0.829,4.275c-0.146,1.012-0.581,1.701-1.629,2.064
				C100.829,239.13,101.089,238.814,101.178,238.502z M246.103,352.987c-1.45,10.221-4.156,20.104-8.13,29.636
				c-0.137,0.329-0.172,0.735-0.589,0.985c-0.236-2.039-0.459-4.043-0.702-6.046c-0.539-4.451-1.569-8.783-3.169-12.975
				c-0.058-0.151-0.122-0.299-0.169-0.453c-0.274-0.889-0.129-1.105,0.776-0.946c1.236,0.216,2.464,0.191,3.695,0.038
				c4.705-0.584,7.085-4.525,7.555-8.619c0.276-2.404,0.298-4.83,0.279-7.251c-0.016-2.04,0.207-4.06,0.444-6.219
				c0.804,0.512,0.766,1.207,0.773,1.89C246.897,346.367,246.571,349.688,246.103,352.987z M258.756,312.465
				c0.465,1.99,0.925,3.983,1.449,5.958c0.721,2.716,1.783,5.296,3.217,7.724c0.601,1.018,1.106,2.092,1.643,3.147
				c0.17,0.335,0.329,0.68,0.448,1.036c0.889,2.644,1.278,5.284-0.635,7.661c-2.261,2.809-5.196,3.893-8.759,3.102
				c-4.084-0.906-7.722-4.763-8.399-8.882c-0.079-0.483-0.132-0.968-0.003-1.442c0.915-3.37,1.565-6.823,3.122-9.993
				c0.136-0.277,0.176-0.631,0.648-0.735c0.445,0.463,0.455,1.142,0.691,1.717c0.224,0.547,0.424,1.105,0.657,1.648
				c0.126,0.294,0.281,0.631,0.67,0.597c0.494-0.043,0.542-0.471,0.564-0.842c0.111-1.936,0.127-3.881-0.073-5.806
				c-0.464-4.46-1.486-8.799-3.074-12.998c-0.209-0.552-0.432-1.106-0.715-1.622c-1.041-1.901-2.178-1.982-3.523-0.272
				c-0.397,0.049-0.557-0.274-0.753-0.512c-2.74-3.324-5.621-6.516-8.703-9.528c-3.083-3.013-5.874-6.289-8.578-9.641
				c-1.288-1.596-2.414-3.306-3.36-5.122c-2.67-5.129-7.244-7.786-12.443-9.612c-1.812-0.636-3.727-0.511-5.603-0.363
				c-4.519,0.358-8.906,1.294-13.257,2.63c-7.204,2.211-14.295,4.721-21.395,7.235c-6.137,2.173-12.487,3.652-18.948,4.601
				c-4.735,0.695-9.444,1.591-14.192,2.167c-5.492,0.667-9.24,3.732-12.161,8.149c-1.679,2.54-2.535,5.369-2.709,8.352
				c-0.213,3.647-0.358,7.312,0.214,10.952c0.251,1.598,0.66,3.158,1.173,4.691c0.119,0.355,0.246,0.721,0.446,1.032
				c0.3,0.466,0.768,0.457,1.005-0.036c0.206-0.429,0.322-0.911,0.417-1.382c0.631-3.115,0.953-6.272,1.256-9.43
				c0.32-3.335,0.944-6.621,2.081-9.761c1.333-3.678,3.868-6.141,7.873-6.836c3.974-0.689,7.981-1.13,11.984-1.596
				c10.189-1.185,20.198-3.083,29.645-7.296c5.757-2.567,11.71-4.614,17.731-6.454c3.887-1.187,7.888-1.681,11.953-1.448
				c2.722,0.156,5.27,1.023,7.713,2.192c1.005,0.481,1.684,1.336,2.221,2.281c0.797,1.403,1.523,2.845,2.317,4.25
				c2.178,3.859,4.849,7.36,7.752,10.698c4.235,4.87,8.441,9.766,12.651,14.657c1.091,1.267,2.003,2.654,2.827,4.115
				c1.408,2.496,1.244,4.961-0.04,7.391c-1.089,2.061-2.029,4.166-2.398,6.476c-0.289,1.804-0.442,3.63-0.724,5.436
				c-0.87,5.588-0.952,11.247-1.551,16.859c-0.068,0.633,0.036,1.286,0.072,1.929c0.072,1.288,0.126,2.578,0.233,3.864
				c0.236,2.832-3.387,5.145-6.099,3.986c-3.064-1.31-5.598-3.26-7.713-5.915c-3.918-4.92-5.386-10.557-5.5-16.68
				c-0.055-2.96,0.055-5.906,0.482-8.849c0.279-1.918-0.35-3.769-2.007-4.809c-2.402-1.507-4.431-3.426-6.396-5.386
				c-4.53-4.521-9.153-8.954-13.457-13.698c-0.469-0.517-0.945-1.046-1.496-1.465c-1.19-0.904-2.511-0.316-2.723,1.165
				c-0.087,0.607,0.076,1.175,0.279,1.734c0.517,1.419,1.138,2.796,1.885,4.102c0.529,0.924,0.54,1.728,0.151,2.728
				c-2.289,5.889-5.299,11.409-8.437,16.872c-2.841,4.946-6.096,9.642-8.793,14.673c-0.508,0.948-1.028,1.891-1.502,2.857
				c-0.177,0.36-0.551,0.804-0.143,1.176c0.484,0.441,0.912-0.035,1.274-0.3c0.605-0.443,1.169-0.947,1.728-1.451
				c3.381-3.047,6.149-6.608,8.704-10.352c3.255-4.771,6.014-9.811,8.285-15.12c0.16-0.375,0.164-0.866,0.744-1.125
				c0.526,1.656,0.731,3.347,0.913,5.029c0.555,5.14,0.751,10.302,0.605,15.465c-0.137,4.836-0.512,9.662-1.066,14.473
				c-0.295,2.563-0.553,5.131-0.791,7.701c-0.046,0.494-0.304,1.223,0.327,1.428c0.658,0.213,0.815-0.549,1.062-0.982
				c2.026-3.556,3.104-7.435,3.783-11.434c1.182-6.958,1.955-13.951,1.718-21.029c-0.11-3.286-0.425-6.544-1.062-9.771
				c-0.06-0.306-0.243-0.613-0.037-0.932c0.289-0.199,0.501-0.007,0.709,0.148c2.599,1.943,5.521,3.333,8.347,4.888
				c0.141,0.078,0.296,0.13,0.439,0.204c2.418,1.25,2.355,1.325,1.736,3.965c-1.275,5.444-1.687,10.941-0.469,16.465
				c0.347,1.575,0.742,3.141,1.183,4.692c0.52,1.828,1.378,3.501,2.55,5.004c1.191,1.527,2.379,3.056,3.595,4.563
				c0.369,0.457,0.764,0.939,1.25,1.247c1.304,0.825,1.941,2.059,2.527,3.425c2.897,6.761,4.26,13.835,4.698,21.151
				c0.229,3.82,0.182,7.632,0.209,11.449c0.006,0.885-0.183,1.694-0.589,2.479c-1.607,3.111-3.337,6.163-5.367,9.004
				c-2.263,3.167-5.118,5.813-8.295,8.07c-6.793,4.826-14.147,8.385-22.446,9.762c-4.023,0.668-8.044,0.658-12.025-0.224
				c-5.83-1.291-11.64-2.671-17.236-4.812c-4.69-1.794-9.114-4.116-13.414-6.69c-0.368-0.22-0.734-0.462-1.046-0.752
				c-3.231-3.004-6.516-5.964-9.178-9.511c-3.07-4.091-5.085-8.728-6.713-13.534c-1.122-3.31-2.081-6.676-3.137-10.009
				c-0.926-2.923-1.887-5.835-2.831-8.752c-0.16-0.494-0.418-0.968-0.414-1.588c0.67,0.208,0.887,0.732,1.201,1.14
				c2.431,3.156,4.917,6.263,7.837,8.995c1.222,1.144,2.523,2.181,3.943,3.065c0.259,0.161,0.589,0.408,0.865,0.091
				c0.267-0.307,0.007-0.614-0.19-0.854c-0.919-1.125-1.877-2.218-2.78-3.355c-3.555-4.469-6.728-9.174-9.483-14.201
				c-3.566-6.508-7.498-12.815-11.202-19.248c-3.947-6.854-7.796-13.772-11.197-20.911c-3.516-7.38-6.727-14.903-9.478-22.613
				c-2.93-8.21-6.072-16.338-9.762-24.243c-1.4-2.999-2.408-6.099-2.547-9.439c-0.045-1.087,0.059-2.137,0.389-3.182
				c0.503-1.59,0.931-3.203,1.576-4.745c1.767-4.223,4.769-7.316,8.591-9.776c8.056-5.186,16.443-9.819,24.583-14.863
				c4.481-2.777,9.003-5.489,13.352-8.477c1.865-1.281,3.676-2.631,5.396-4.098c2.335-1.991,4.971-3.591,7.268-5.631
				c3.579-3.179,7.138-6.382,10.77-9.501c4.289-3.683,8.22-7.748,12.416-11.529c1.325-1.194,2.816-2.158,4.247-3.206
				c1.146-0.839,2.427-1.127,3.818-0.938c4.015,0.547,7.943,1.373,11.565,3.32c3.236,1.739,6.012,3.957,7.937,7.14
				c0.278,0.46,0.616,0.886,0.876,1.355c3.232,5.833,7.407,10.953,11.973,15.768c1.702,1.795,3.573,3.423,5.519,4.956
				c3.424,2.695,6.865,5.369,10.283,8.072c2.416,1.911,5.031,3.496,7.755,4.922c1.477,0.773,2.915,1.619,4.37,2.433
				c2.26,1.265,3.993,3.046,5.327,5.265c2.023,3.366,4.098,6.698,6.391,9.895c1.488,2.075,3.171,3.921,5.24,5.428
				c1.826,1.331,3.621,2.707,5.166,4.375c1.668,1.8,2.913,3.848,3.725,6.171c0.463,1.325,0.182,2.381-0.83,3.354
				c-2.068,1.989-4.695,2.523-7.37,2.904c-5.695,0.811-10.678-1.296-15.523-3.903c-0.883-0.475-1.405-1.317-1.959-2.11
				c-1.973-2.822-3.894-5.681-5.918-8.466c-3.074-4.232-6.566-8.108-10.317-11.75c-0.813-0.79-1.501-1.677-2.216-2.552
				c-3.898-4.772-8.035-9.319-13.721-12.02c-4.873-2.314-10.006-3.209-15.38-2.145c-1.276,0.253-2.485,0.72-3.643,1.288
				c-0.85,0.417-1.487,0.288-2.19-0.317c-1.876-1.614-3.819-3.15-5.846-4.572c-0.482-0.338-0.977-0.682-1.514-0.912
				c-0.821-0.353-1.282,0.014-1.1,0.891c0.252,1.217,0.68,2.422,1.341,3.445c0.988,1.529,0.56,2.698-0.505,3.89
				c-0.503,0.563-1.012,1.109-1.579,1.61c-0.967,0.855-1.977,1.679-2.831,2.639c-1.665,1.873-3.725,3.011-6.072,3.803
				c-10.559,3.564-21.235,6.699-32.152,8.982c-3.686,0.771-7.246,2.11-10.968,2.681c-6.032,0.926-11.171,3.734-16.038,7.195
				c-2.659,1.891-4.521,4.414-5.799,7.398c-1.651,3.855-2.411,7.89-2.686,12.062c-0.284,4.314,0.561,8.339,2.612,12.124
				c0.28,0.517,0.596,1.033,0.987,1.467c0.418,0.465,0.935,0.298,1.053-0.331c0.088-0.469,0.064-0.964,0.05-1.446
				c-0.105-3.713-0.129-7.42,0.329-11.118c0.56-4.527,1.852-8.838,3.784-12.955c1.445-3.08,4.203-4.816,6.928-6.566
				c2.236-1.436,4.783-1.855,7.339-2.278c13.5-2.233,26.854-5.01,39.575-10.271c3.077-1.272,6.31-2.151,9.379-3.474
				c3.809-1.643,7.47-3.582,11.17-5.443c2.309-1.162,4.647-2.254,7.057-3.187c3.562-1.379,7.231-1.556,10.951-0.869
				c2.211,0.408,4.127,1.544,5.98,2.741c5.749,3.715,10.643,8.348,14.839,13.759c3.369,4.344,6.285,8.995,9.399,13.512
				c4.37,6.338,8.956,12.511,13.847,18.454c0.955,1.16,1.982,2.282,3.102,3.28c2.657,2.368,4.082,5.463,5.513,8.62
				C256.987,303.402,257.707,307.972,258.756,312.465z M294.097,275.712c-7.225,2.092-14.522,3.909-21.843,5.619
				c-4.338,1.013-8.728,1.804-13.088,2.725c-1.68,0.355-3.349,0.768-5.011,1.202c-0.984,0.258-1.756,0.084-2.451-0.707
				c-1.01-1.149-2.05-2.267-3.109-3.735c0.986,0.038,1.548,0.365,2.143,0.548c5.067,1.56,10.016,1.15,14.684-1.269
				c3.077-1.595,4.962-4.208,5.151-7.831c0.066-1.262,0.144-1.317,1.356-1.602c0.261-0.061,0.529-0.099,0.786-0.176
				c1.652-0.495,3.175-0.345,4.827,0.327c2.628,1.068,5.365,1.89,8.147,2.527c1.672,0.383,3.229,1.192,4.96,1.376
				c1.438,0.153,2.874,0.318,4.435,0.491C294.796,275.627,294.418,275.619,294.097,275.712z M319.778,267.308
				c-2.845,1.063-5.845,1.409-8.809,1.93c-3.614,0.635-7.27,0.785-10.923,0.869c-1.711,0.039-3.436-0.163-5.141-0.362
				c-2.454-0.287-4.882-0.75-7.363-0.869c-1.27-0.061-2.538-0.455-3.777-0.805c-4.561-1.29-9.07-2.738-13.186-5.157
				c-1.932-1.136-3.808-2.325-5.32-4.075c-1.258-1.456-2.76-2.717-4.251-3.949c-1.724-1.424-3.13-3.098-4.361-4.939
				c-1.884-2.817-3.736-5.655-5.638-8.459c-1.091-1.608-2.456-2.967-3.873-4.305c-1.369-1.293-2.663-2.65-4.245-3.692
				c-0.426-0.281-0.574-0.766-0.749-1.217c-2.293-5.892-3.879-11.957-4.603-18.251c-0.284-2.468-0.311-4.935-0.329-7.404
				c-0.26-9.014,1.953-17.454,5.71-25.588c3.234-7.003,7.333-13.411,12.696-18.943c6.146-6.339,13.417-11.023,21.589-14.411
				c5.674-2.352,11.522-3.951,17.602-4.432c8.771-0.692,17.393,0.277,25.763,3.166c7.59,2.62,14.675,6.201,20.98,11.179
				c11.135,8.791,18.155,20.238,21.48,33.984c0.975,4.031,1.533,8.115,1.738,12.274c0.546,11.068-1.658,21.543-6.883,31.274
				c-6.55,12.197-15.684,21.884-28.316,28.006C326.367,264.682,323.105,266.065,319.778,267.308z M422.95,244.533
				c-6.309,1.793-12.606,3.637-19.101,4.684c-1.749,0.282-3.486,0.664-5.21,1.079c-3.139,0.756-6.293,1.407-9.495,1.837
				c-3.857,0.518-7.484,1.962-11.246,2.865c-5.493,1.319-10.938,2.805-16.316,4.534c-2.21,0.71-4.498,1.05-6.772,1.469
				c-4.812,0.887-9.616,1.818-14.343,3.107c-0.548,0.15-1.101,0.423-1.705,0.194c0.025-0.516,0.461-0.603,0.747-0.803
				c3.981-2.774,7.71-5.85,11.139-9.285c0.459-0.46,0.91-0.891,1.609-0.993c4.065-0.599,7.894-2.07,11.817-3.2
				c7.183-2.069,14.53-3.522,21.73-5.513c8.614-2.382,17.369-4.106,26.07-6.087c1.624-0.37,3.252-0.773,4.818-1.329
				c1.542-0.547,3.155-0.6,4.726-0.907c1.612-0.314,1.923,0.009,2.302,1.671c0.299,1.309,0.682,2.597,0.865,3.935
				C424.833,243.591,424.654,244.049,422.95,244.533z"/>
			<path d="M231.078,334.742c0.107,0.286,0.232,0.646,0.652,0.567c0.32-0.06,0.357-0.367,0.398-0.63
				c0.138-0.893,0.265-1.788,0.396-2.683c0.238,0.611,0.346,1.234,0.402,1.861c0.068,0.756,0.211,1.491,0.517,2.186
				c0.106,0.241,0.247,0.501,0.578,0.475c0.324-0.025,0.417-0.298,0.513-0.546c0.249-0.642,0.214-1.382,0.759-2.256
				c0,1.377-0.027,2.451,0.014,3.523c0.015,0.393-0.005,0.96,0.568,0.995c0.47,0.029,0.527-0.48,0.637-0.816
				c0.278-0.849,0.512-1.713,0.763-2.571c0.073,0.013,0.146,0.027,0.219,0.04c0,1.322-0.006,2.645,0.002,3.967
				c0.006,0.973,0.119,1.932,0.504,2.838c0.084,0.197,0.217,0.372,0.468,0.378c0.269,0.006,0.38-0.198,0.438-0.398
				c0.18-0.619,0.33-1.247,0.495-1.87c1.735-6.552,3.126-13.18,4.387-19.837c0.12-0.632,0.291-1.263,0.11-1.913
				c-0.171-0.617-0.518-1.074-1.184-1.17c-0.59-0.086-1.02,0.201-1.379,0.658c-0.294,0.375-0.302,0.916-0.713,1.227
				c-0.976-1.417-1.82-1.408-2.62-0.013c-0.206,0.36-0.179,0.861-0.628,1.078c-1.615-1.302-2.629-1.014-3.316,0.972
				c-0.239,0.689-0.378,1.413-0.565,2.129c-0.266-0.126-0.28-0.357-0.34-0.552c-0.174-0.57-0.518-0.958-1.136-0.971
				c-0.702-0.015-1.076,0.466-1.263,1.056c-0.177,0.559-0.283,1.147-0.362,1.729c-0.329,2.411-0.211,4.826,0.019,7.235
				C230.516,332.554,230.679,333.676,231.078,334.742z"/>
			<path d="M183.414,206.375c0.58,0.618,1.17,1.226,1.77,1.853c-0.314,0.174-0.483-0.011-0.664-0.091
				c-0.531-0.235-1.062-0.335-1.46,0.188c-0.378,0.496-0.2,1.023,0.077,1.51c0.324,0.569,0.79,1.024,1.273,1.449
				c3.623,3.187,7.642,5.746,12.115,7.574c0.346,0.142,0.711,0.246,1.075,0.337c0.218,0.055,0.432-0.021,0.552-0.226
				c0.128-0.219,0.03-0.432-0.12-0.586c-0.262-0.268-0.547-0.516-0.837-0.754c-1.153-0.944-2.311-1.88-3.507-2.851
				c0.398-0.204,0.601,0.039,0.828,0.133c0.595,0.247,1.173,0.534,1.77,0.773c0.194,0.077,0.439,0.062,0.574-0.157
				c0.122-0.199,0.103-0.421-0.044-0.597c-0.24-0.288-0.506-0.555-0.756-0.836c-0.461-0.516-1.053-0.931-1.337-1.585
				c0.796,0.405,1.505,0.888,2.24,1.329c0.257,0.154,0.603,0.375,0.867,0.035c0.245-0.314,0.001-0.608-0.179-0.87
				c-0.213-0.31-0.436-0.614-0.673-0.906c-3.519-4.345-7.04-8.689-10.563-13.03c-0.169-0.208-0.342-0.419-0.542-0.595
				c-0.682-0.6-1.344-0.702-1.892-0.275c-0.648,0.505-0.691,1.173-0.433,1.892c0.221,0.615,0.588,1.15,1,1.648
				c1.261,1.526,2.536,3.04,3.805,4.559c-0.058,0.035-0.115,0.069-0.173,0.104c-0.621-0.592-1.243-1.182-1.862-1.776
				c-0.622-0.596-1.262-1.17-1.996-1.629c-0.477-0.299-0.982-0.512-1.503-0.159c-0.569,0.385-0.602,0.984-0.488,1.593
				C182.473,205.194,182.891,205.818,183.414,206.375z"/>
			<path d="M209.588,282.035c2.062,3.342,4.273,6.582,6.694,9.676c0.434,0.554,0.94,1.034,1.535,1.414
				c0.227,0.145,0.48,0.3,0.748,0.151c0.348-0.194,0.302-0.544,0.23-0.856c-0.33-1.432-1.02-2.711-1.744-3.971
				c-0.293-0.51-0.605-1.009-0.908-1.514c0.924,0.682,1.589,1.518,2.266,2.343c0.648,0.789,1.303,1.573,1.967,2.349
				c0.212,0.248,0.482,0.499,0.827,0.315c0.262-0.14,0.264-0.46,0.185-0.723c-0.201-0.668-0.385-1.346-0.654-1.988
				c-0.551-1.315-1.154-2.609-1.735-3.912c0.063-0.038,0.126-0.076,0.189-0.114c0.669,0.816,1.306,1.661,2.017,2.438
				c0.724,0.792,1.513,1.525,2.291,2.264c0.193,0.183,0.468,0.309,0.736,0.135c0.257-0.167,0.256-0.447,0.226-0.721
				c-0.085-0.756-0.325-1.469-0.611-2.166c-1.539-3.761-3.688-7.16-6.176-10.355c-0.431-0.553-0.939-1.036-1.523-1.431
				c-0.688-0.464-1.406-0.834-2.255-0.447c-0.896,0.409-0.935,1.206-0.77,2.15c-0.871-0.086-1.73-0.405-2.293,0.426
				c-0.57,0.841,0.102,1.602,0.306,2.458c-0.289-0.062-0.439-0.099-0.591-0.127c-1.231-0.224-1.734,0.337-1.322,1.488
				C209.31,281.57,209.447,281.807,209.588,282.035z"/>
			<path d="M110.929,248.827c0.411-0.343,1.348-0.564,0.958-1.232c-0.341-0.586-1.096-0.041-1.601,0.165
				c-1.229,0.501-2.42,1.098-3.626,1.656c-0.038-0.082-0.077-0.163-0.115-0.245c0.192-0.18,0.376-0.37,0.578-0.539
				c1.237-1.036,2.483-2.06,3.712-3.105c0.311-0.265,0.815-0.527,0.594-1.024c-0.263-0.591-0.827-0.33-1.285-0.252
				c-0.958,0.165-1.871,0.48-2.772,0.845c-3.58,1.452-6.651,3.722-9.702,6.023c-1.42,1.072-2.739,2.259-3.913,3.598
				c-0.569,0.649-1.114,1.328-1.289,2.203c-0.263,1.315,0.603,2.232,1.918,2.069c0.362-0.045,0.67-0.358,1.069-0.217
				c0.073,1.671,0.283,1.791,1.753,1.026c1.058-0.55,1.988-1.281,2.902-2.033C103.723,254.794,107.334,251.819,110.929,248.827z"/>
			<path d="M187.539,199.076c2.863,4.272,6.279,8.055,10.136,11.445c0.482,0.424,1.026,0.784,1.568,1.133
				c0.338,0.218,0.727,0.633,1.135,0.197c0.318-0.34,0.011-0.711-0.179-1.023c-0.561-0.918-1.132-1.83-1.712-2.736
				c-0.459-0.718-0.936-1.424-1.404-2.135c1.769,1.658,3.402,3.365,5.098,5.012c0.345,0.335,0.726,0.639,1.115,0.922
				c0.105,0.076,0.328,0.077,0.453,0.019c0.225-0.106,0.255-0.359,0.164-0.557c-0.268-0.587-0.546-1.171-0.861-1.732
				c-2.454-4.366-5.458-8.384-8.042-12.669c-0.137-0.227-0.323-0.432-0.512-0.62c-0.525-0.522-1.135-0.874-1.883-0.543
				c-0.742,0.328-0.974,0.952-0.814,1.735c0.042,0.204,0.144,0.417-0.04,0.621c-0.449-0.044-0.546-0.472-0.762-0.751
				c-0.593-0.764-1.108-1.592-1.735-2.326c-0.762-0.893-1.605-1.135-2.254-0.774c-0.665,0.369-0.888,1.204-0.612,2.302
				C186.625,197.493,187.025,198.311,187.539,199.076z"/>
			<path d="M235.815,245.866c1.283,1.936,2.968,3.53,4.49,5.265c1.959,2.232,4.15,4.196,6.59,5.886
				c0.264,0.183,0.532,0.364,0.815,0.514c0.192,0.102,0.434,0.147,0.566-0.085c0.069-0.121,0.104-0.338,0.042-0.447
				c-0.319-0.557-0.646-1.114-1.025-1.631c-0.905-1.239-1.84-2.456-2.764-3.682c0.106-0.076,0.212-0.153,0.318-0.229
				c0.466,0.433,0.927,0.872,1.4,1.297c0.519,0.466,1.036,0.936,1.583,1.368c0.287,0.227,0.647,0.489,1.015,0.191
				c0.278-0.225,0.23-0.591,0.126-0.903c-0.237-0.712-0.45-1.437-0.757-2.12c-1.437-3.203-3.344-6.121-5.482-8.893
				c-0.391-0.508-0.843-0.979-1.319-1.409c-1.023-0.922-2.089-1.042-2.903-0.38c-0.766,0.623-0.911,1.647-0.352,2.796
				c0.21,0.432,0.511,0.819,0.755,1.235c0.189,0.323,0.566,0.561,0.586,1.213c-0.5-0.478-0.848-0.806-1.19-1.139
				c-0.539-0.524-1.055-1.076-1.733-1.43c-0.442-0.231-0.907-0.419-1.337-0.006c-0.404,0.389-0.375,0.882-0.155,1.343
				C235.291,245.055,235.55,245.466,235.815,245.866z"/>
			<path d="M126.859,267.952c2.938-1.026,5.866-2.086,8.776-3.19c0.592-0.224,1.63-0.326,1.468-1.18
				c-0.144-0.757-1.148-0.68-1.803-0.729c-2.305-0.173-4.608-0.155-6.894,0.309c-2.581,0.525-5.136,1.149-7.63,1.987
				c-2.813,0.944-5.504,2.15-7.735,4.181c-0.639,0.581-1.23,1.215-1.42,2.101c-0.263,1.226,0.51,2.169,1.913,2.124
				c0.837-0.155,1.751-0.618,2.673-1.045C119.712,270.884,123.203,269.229,126.859,267.952z"/>
			<path d="M138.094,296.348c0.419,0.066,0.859,0.078,1.282,0.034c0.907-0.095,1.813-0.221,2.713-0.369
				c4.238-0.698,8.439-1.598,12.694-2.211c2.121-0.305,4.209-0.844,6.308-1.3c0.361-0.078,0.77-0.242,0.766-0.704
				c-0.003-0.352-0.312-0.559-0.615-0.681c-0.497-0.199-0.998-0.408-1.517-0.529c-1.834-0.43-3.686-0.748-5.688-0.662
				c-1.514-0.099-3.109,0.199-4.712,0.337c-3.106,0.268-6.19,0.71-9.193,1.59c-1.037,0.304-2.04,0.693-2.887,1.383
				c-0.621,0.506-0.994,1.153-0.763,1.981C136.701,296.01,137.385,296.237,138.094,296.348z"/>
			<path d="M131.975,362.052c0.622,1.004,1.254,2.004,1.927,2.973c2.856,4.109,6.044,7.953,9.42,11.641
				c1.492,1.629,3.137,3.092,4.99,4.305c0.675,0.442,1.395,0.817,2.197,0.977c0.336,0.067,0.651-0.001,0.722-0.484
				c-0.107-0.449-0.465-0.784-0.772-1.154c-1.957-2.354-3.94-4.688-5.859-7.072c-3.368-4.184-6.662-8.428-10.203-12.47
				c-0.353-0.403-0.712-0.807-1.109-1.166c-0.433-0.391-0.958-0.54-1.469-0.164c-0.49,0.36-0.584,0.889-0.38,1.446
				C131.587,361.285,131.75,361.69,131.975,362.052z"/>
			<path d="M226.57,263.279c-2.522-4.142-5.56-7.9-8.746-11.533c-2.3-2.623-4.759-5.105-7.432-7.359
				c-0.447-0.377-0.893-0.783-1.512-0.874c-0.785-0.051-1.341,0.657-1.172,1.539c0.159,0.826,0.706,1.431,1.246,2.032
				c2.546,2.834,5.058,5.701,7.648,8.494c2.808,3.028,5.47,6.204,8.7,8.817c0.458,0.371,0.928,0.729,1.401,1.08
				c0.175,0.13,0.414,0.222,0.599,0.094c0.262-0.182,0.211-0.475,0.088-0.724C227.129,264.317,226.876,263.782,226.57,263.279z"/>
			<path d="M222.247,263.628c-3.307-4.888-7.331-9.125-11.846-12.907c-0.323-0.27-0.712-0.504-1.109-0.635
				c-0.896-0.294-1.611,0.27-1.619,1.213c-0.005,0.589,0.259,1.259,1.078,2.298c3.071,3.895,6.541,7.415,10.238,10.712
				c1.004,0.896,2.092,1.692,3.261,2.362c0.348,0.199,0.752,0.556,1.163,0.147c0.327-0.326,0.113-0.728-0.041-1.053
				C223.029,265.037,222.696,264.291,222.247,263.628z"/>
			<path d="M146.583,299.516c4.238-0.706,8.455-1.516,12.647-2.452c0.575-0.128,1.142-0.298,1.705-0.471
				c0.263-0.081,0.501-0.24,0.484-0.561c-0.016-0.304-0.25-0.467-0.501-0.566c-1.06-0.416-2.169-0.624-3.299-0.685
				c-2.795-0.151-5.583-0.09-8.35,0.392c-1.904,0.331-3.822,0.597-5.67,1.192c-0.819,0.264-1.647,0.54-2.262,1.181
				c-0.745,0.777-0.549,1.643,0.451,2.027c0.72,0.276,1.483,0.19,2.062,0.197C144.882,299.753,145.731,299.658,146.583,299.516z"/>
			<path d="M253.644,299.791c-0.491-0.511-1.092-0.701-1.751-0.347c-0.576,0.309-0.832,0.83-0.731,1.481
				c0.057,0.369,0.173,0.731,0.278,1.091c0.497,1.7,1.056,3.383,1.489,5.099c1.011,4.006,1.955,8.029,2.943,12.04
				c0.179,0.728,0.434,1.438,0.674,2.149c0.068,0.201,0.207,0.389,0.455,0.398c0.341,0.013,0.476-0.257,0.516-0.51
				c0.143-0.899,0.246-1.805,0.306-2.265c-0.117-3.132-0.391-5.798-0.879-8.441c-0.546-2.959-1.166-5.898-2.247-8.718
				C254.429,301.065,254.176,300.346,253.644,299.791z"/>
			<path d="M138.032,267.634c-0.697-0.033-1.397-0.009-2.095-0.009c-3.317-0.03-6.483,0.871-9.665,1.644
				c-2.718,0.66-5.391,1.485-7.929,2.689c-0.826,0.392-1.661,0.784-2.246,1.525c-0.283,0.359-0.386,0.771-0.125,1.197
				c0.218,0.355,0.564,0.499,0.962,0.471c0.319-0.023,0.64-0.086,0.948-0.172c1.346-0.375,2.716-0.685,4.025-1.162
				c5.157-1.88,10.417-3.417,15.716-4.831c0.208-0.055,0.413-0.12,0.617-0.189c0.348-0.118,0.855-0.166,0.813-0.629
				C139.002,267.605,138.44,267.653,138.032,267.634z"/>
			<path d="M149.945,300.043c-0.989,0.289-1.927,0.716-2.585,1.557c-0.792,1.012-0.512,1.965,0.688,2.405
				c0.837,0.307,1.688,0.245,2.545,0.077c2.906-0.568,5.767-1.304,8.556-2.301c1.214-0.434,2.417-0.901,3.614-1.38
				c0.34-0.136,0.733-0.322,0.701-0.781c-0.033-0.458-0.451-0.562-0.802-0.677c-1.198-0.395-2.443-0.315-4.131-0.358
				C155.887,298.551,152.895,299.18,149.945,300.043z"/>
			<path d="M134.686,271.884c-0.805-0.011-1.617-0.037-2.414,0.054c-1.12,0.128-2.243,0.297-3.339,0.556
				c-2.36,0.559-4.66,1.313-6.797,2.486c-0.752,0.413-1.514,0.852-1.886,1.693c-0.443,1.002,0.113,1.94,1.316,1.957
				c0.405-0.124,0.979-0.268,1.531-0.473c3.781-1.408,7.486-2.999,11.181-4.617c0.246-0.108,0.491-0.223,0.723-0.358
				c0.32-0.186,0.759-0.36,0.626-0.816C135.509,271.961,135.061,271.889,134.686,271.884z"/>
			<path d="M111.761,252.838c0.322-0.274,0.685-0.535,0.757-0.986c-0.037-0.264-0.18-0.398-0.422-0.418
				c-0.439-0.036-0.854,0.075-1.26,0.223c-4.227,1.546-7.778,4.111-10.896,7.304c-0.636,0.651-1.144,1.429-1.408,2.329
				c-0.132,0.452-0.07,0.873,0.299,1.176c0.384,0.316,0.806,0.233,1.196-0.024c0.269-0.177,0.532-0.366,0.786-0.565
				c1.355-1.062,2.729-2.1,4.052-3.199C107.181,256.753,109.469,254.792,111.761,252.838z"/>
			<path d="M232.501,254.662c2.866,2.989,5.891,5.785,9.622,7.686c0.545,0.278,1.319,0.888,1.738,0.364
				c0.566-0.707-0.377-1.2-0.806-1.658c-1.464-1.564-2.989-3.07-4.491-4.598c1.328,0.9,2.653,1.804,3.986,2.696
				c0.491,0.328,0.993,0.662,1.579,0.78c0.493,0.099,0.715-0.182,0.6-0.654c-0.061-0.253-0.207-0.496-0.358-0.714
				c-2.513-3.618-5.162-7.126-8.302-10.233c-0.378-0.374-0.822-0.69-1.266-0.986c-0.569-0.38-1.184-0.545-1.787-0.063
				c-0.595,0.476-0.568,1.118-0.388,1.766c0.203,0.732,0.581,1.382,1.013,2.001c0.832,1.192,1.797,2.27,2.845,3.276
				c-0.479-0.01-0.763-0.355-1.077-0.639c-0.637-0.575-1.264-1.161-2.012-1.594c-0.45-0.26-0.912-0.345-1.342,0.024
				c-0.416,0.358-0.458,0.831-0.309,1.325C231.89,253.91,232.168,254.314,232.501,254.662z"/>
			<path d="M145.238,368.031c-0.19-0.185-0.413-0.346-0.644-0.476c-0.406-0.228-0.831-0.242-1.2,0.073
				c-0.312,0.267-0.376,0.631-0.294,1.028c0.123,0.597,0.43,1.106,0.82,1.549c2.846,3.236,5.939,6.197,9.603,8.508
				c0.404,0.255,0.857,0.443,1.307,0.608c0.304,0.112,0.499-0.076,0.567-0.385c-0.081-0.507-0.433-0.852-0.732-1.227
				C151.841,374.173,148.465,371.175,145.238,368.031z"/>
			<path d="M162.84,303.091c-0.986-0.333-2.008-0.266-3.295-0.283c-1.676-0.06-3.57,0.247-5.404,0.893
				c-1.426,0.502-2.206,1.468-1.972,2.361c0.222,0.849,1.26,1.23,2.757,0.965c1.37-0.243,2.734-0.528,4.038-1.029
				c1.347-0.517,2.746-0.908,4.019-1.609c0.284-0.156,0.591-0.348,0.548-0.718C163.488,303.304,163.15,303.195,162.84,303.091z"/>
			<path d="M210.276,258.731c-0.521-0.462-1.244-1.281-1.926-0.575c-0.641,0.663,0.115,1.416,0.572,1.966
				c1.687,2.031,3.609,3.841,5.506,5.671c0.893,0.862,1.887,1.601,2.938,2.26c0.315,0.198,0.662,0.358,1.014,0.483
				c0.296,0.105,0.515-0.035,0.587-0.358c-0.043-0.397-0.287-0.689-0.517-0.986C216.037,264.071,213.217,261.34,210.276,258.731z"/>
			<path d="M134.771,277.099c-0.211-0.029-0.427-0.028-0.662-0.041c-2.389,0.239-4.746,0.684-6.958,1.717
				c-0.438,0.205-0.855,0.45-1.18,0.818c-0.296,0.335-0.485,0.717-0.335,1.174c0.169,0.514,0.57,0.773,1.082,0.826
				c0.314,0.032,0.651,0.028,0.953-0.053c2.603-0.698,4.997-1.891,7.354-3.161c0.323-0.174,0.706-0.409,0.556-0.858
				C135.47,277.188,135.09,277.142,134.771,277.099z"/>
			<path d="M209.33,287.045c1.012,1.38,2.055,2.738,3.237,3.98c0.626,0.658,1.285,1.285,1.941,1.913
				c0.195,0.186,0.467,0.344,0.714,0.151c0.246-0.192,0.159-0.491,0.038-0.735c-1.356-2.742-2.95-5.333-4.93-7.675
				c-0.246-0.291-0.555-0.504-0.992-0.503c-0.621,0.111-0.88,0.534-0.814,1.144C208.596,285.976,208.949,286.526,209.33,287.045z"/>
			<path d="M162.353,112.395c-0.003,0.959,0.578,1.591,1.386,2.02c0.671,0.356,1.403,0.543,2.143,0.69
				c2.409,0.476,4.837,0.823,7.287,1.044c-1.719-0.001-3.438,0.133-5.148-0.134c-0.315-0.049-0.647-0.073-0.961-0.03
				c-0.581,0.079-0.998,0.403-1.12,1.003c-0.109,0.538,0.149,0.939,0.566,1.243c0.534,0.389,1.15,0.59,1.796,0.67
				c4.502,0.555,9.019,0.451,13.531,0.214c1.819-0.096,3.647-0.297,5.415-0.803c0.464-0.133,0.927-0.279,1.376-0.455
				c0.245-0.096,0.505-0.259,0.429-0.585c-0.074-0.319-0.375-0.356-0.642-0.379c-0.375-0.033-0.752-0.037-1.128-0.052
				c-2.791-0.114-5.573-0.412-8.376-0.421c1.658-0.037,3.297-0.245,4.924-0.502c0.643-0.102,1.756-0.003,1.777-0.759
				c0.025-0.949-1.124-0.751-1.796-0.904c-1.981-0.453-3.979-0.828-6.203-1.28c0.66-0.248,1.083-0.161,1.476-0.087
				c1.654,0.311,3.322,0.247,4.988,0.237c0.376-0.002,0.758-0.009,1.125-0.079c0.402-0.077,0.991-0.054,1.049-0.555
				c0.069-0.59-0.565-0.547-0.942-0.649c-1.141-0.308-2.303-0.541-3.443-0.855c-5.083-1.401-10.242-2.489-15.361-3.741
				c-0.771-0.188-1.562-0.439-2.385-0.216c-0.607,0.165-1.096,0.47-1.275,1.105c-0.181,0.643,0.071,1.149,0.562,1.57
				c0.237,0.203,0.607,0.261,0.708,0.665c-0.113,0.085-0.223,0.217-0.362,0.264C162.899,110.92,162.355,111.479,162.353,112.395z"/>
			<path d="M108.596,155.764c0.827,0.001,1.528-0.521,2.191-1.064c1.829-1.499,3.644-3.015,5.443-4.549
				c3.108-2.65,6.276-5.234,9.063-8.237c0.365-0.393,0.71-0.806,1.044-1.226c0.168-0.211,0.322-0.492,0.15-0.74
				c-0.223-0.323-0.581-0.232-0.876-0.103c-0.541,0.236-1.077,0.489-1.593,0.775c-5.689,3.153-10.541,7.401-15.32,11.74
				c-0.472,0.429-0.891,0.946-1.226,1.489C106.878,154.811,107.393,155.722,108.596,155.764z"/>
			<path d="M185.919,120.483c-4.644-0.412-9.288-0.853-13.962-0.672c-0.646,0.025-1.294,0.058-1.9,0.291
				c-1.187,0.457-1.392,1.727-0.409,2.551c0.547,0.459,1.216,0.678,1.916,0.775c1.221,0.169,2.443,0.353,3.686,0.286
				c3.655-0.118,7.265-0.549,10.758-1.693c0.476-0.156,1.226-0.188,1.189-0.865C187.158,120.458,186.414,120.527,185.919,120.483z"
				/>
			<path d="M112.146,155.256c-0.406,0.429-0.799,0.87-1.031,1.426c-0.228,0.547-0.185,1.056,0.25,1.48
				c0.431,0.421,0.939,0.476,1.485,0.236c0.598-0.263,1.084-0.687,1.573-1.106c3.799-3.255,7.075-7.024,10.486-10.659
				c0.697-0.743,1.361-1.517,2.022-2.292c0.24-0.281,0.501-0.564,0.576-0.949c-0.016-0.355-0.247-0.508-0.529-0.392
				c-0.442,0.181-0.875,0.412-1.264,0.689C120.856,147.15,116.257,150.918,112.146,155.256z"/>
			<path d="M116.048,157.914c-0.33,0.422-0.637,0.868-0.908,1.331c-0.332,0.567-0.342,1.146,0.199,1.603
				c0.532,0.45,1.11,0.366,1.631-0.022c0.386-0.288,0.73-0.633,1.079-0.968c0.658-0.632,1.306-1.275,1.958-1.914
				c0.472-0.491,0.896-1.022,1.313-1.56c-0.417,0.538-0.841,1.07-1.313,1.56c-0.129,0.594-0.531,1.051-0.797,1.576
				c-0.715,1.409-0.643,2.432,0.221,3.062c0.902,0.657,2.047,0.398,3.077-0.826c1.769-2.103,3.272-4.395,4.545-6.832
				c0.622-1.191,1.243-2.384,1.652-3.671c0.129-0.407,0.34-0.887-0.052-1.206c-0.504-0.41-0.897,0.052-1.254,0.351
				c-0.453,0.378-0.862,0.809-1.307,1.198c-0.848,0.742-1.708,1.471-2.563,2.206c0.325-0.941,1.044-1.62,1.599-2.407
				c1.147-1.626,2.326-3.231,3.26-4.995c0.154-0.292,0.252-0.637-0.094-0.855c-0.264-0.167-0.515,0.03-0.729,0.191
				c-0.171,0.129-0.329,0.277-0.485,0.426C123.177,149.865,119.374,153.666,116.048,157.914z"/>
			<path d="M356.73,206.038c-0.061-2.104-0.301-4.18-0.613-6.253c-1.156-7.695-3.641-14.979-7.542-21.669
				c-6.253-10.721-15.424-18.212-26.792-23.068c-9.045-3.864-18.418-4.859-28.129-3.38c-9.336,1.422-17.785,4.938-25.463,10.368
				c-3.305,2.337-6.345,4.979-8.84,8.202c-2.474,3.196-4.573,6.642-6.716,10.058c-0.857,1.367-1.571,2.816-2.229,4.293
				c-3.181,7.139-4.644,14.626-4.592,23.332c-0.031,1.624,0.075,4.148,0.408,6.658c0.134,1.012,0.293,2.022,0.48,3.026
				c1.485,7.992,4.529,15.361,9.07,22.084c4.3,6.367,9.64,11.722,16.343,15.551c7.922,4.525,16.491,7.073,25.598,7.632
				c8.607,0.528,16.94-0.768,24.909-4.171c7.332-3.131,13.677-7.641,19.085-13.495c4.134-4.475,7.223-9.603,9.752-15.119
				C354.963,222.441,356.974,214.498,356.73,206.038z M283.706,205.605c0.015-9.274,6.11-16.621,15.752-18.107
				c3.394-0.523,6.721-0.09,9.852,1.609c4.284,2.324,7.919,5.337,9.777,9.898c2.845,6.987,1.785,13.501-3.252,19.212
				c-2.903,3.292-6.538,5.508-10.913,6.053C291.698,225.919,283.351,215.738,283.706,205.605z M346.304,226.806
				c-0.264,1.591-0.638,3.164-0.871,4.758c-0.185,1.262-0.674,2.349-1.394,3.388c-2.091,3.018-4.545,5.713-7.092,8.348
				c-1.976,2.045-4.435,2.724-7.094,3.008c-0.85,0.091-1.718,0.014-2.578,0.014c-2.225,0.116-4.419-0.045-6.442-1.09
				c-4.045-2.091-6.539-5.366-7.235-9.878c-0.36-2.33-0.62-4.687-0.143-7.059c0.422-2.1,1.145-3.894,2.921-5.352
				c9.45-7.762,10.639-22.82,1.919-32.494c-2.989-3.316-6.805-5.136-11.176-5.971c-5.906-1.128-11.446-0.341-16.607,2.8
				c-2.28,1.387-4.174,3.221-5.795,5.315c-1.461,1.888-3.514,2.702-5.688,3.019c-4.916,0.717-9.579-1.858-11.735-5.958
				c-2.385-4.534-2.802-9.194-1.52-14.069c0.548-2.082,1.326-4.09,2.173-6.07c0.563-1.317,1.414-2.38,2.544-3.268
				c6.9-5.416,14.79-8.483,23.396-9.765c2.166-0.323,4.38-0.508,6.592-0.376c1.213,0.072,1.35,0.231,0.814,1.36
				c-2.105,4.433-1.735,8.883-0.109,13.326c0.815,2.229,2.221,4.039,4.246,5.333c2.992,1.912,6.219,3.231,9.776,3.493
				c7.246,0.535,13.274,3.784,18.649,8.377c4.401,3.761,7.821,8.28,9.618,13.882c0.246,0.767,0.502,1.537,0.67,2.323
				c0.76,3.575,1.554,7.144,2.213,10.738C347.077,218.886,346.958,222.855,346.304,226.806z"/>
			<path d="M312.636,194.695c-0.251-0.247-0.463-0.625-1.043-0.477c-0.252,0.982-0.055,2.069-0.369,3.094
				c-0.596,1.945-2.321,3.47-4.265,3.661c-1.785,0.176-3.696-0.985-4.539-2.76c-0.951-2.001-0.652-3.886,0.92-5.464
				c0.628-0.63,1.328-1.189,2.113-1.885c-1.341-0.616-2.581-0.676-3.865-0.535c-2.463,0.27-4.577,1.427-6.76,2.485
				c-6.118,2.964-8.531,9.937-7.731,15.006c1.529,9.693,11.807,16.239,21.596,11.611
				C317.87,215.094,320.777,202.724,312.636,194.695z"/>
		</g>
	</g>
</g>
</svg>
