<?xml version="1.0" encoding="utf-8"?>
<!-- Generator: Adobe Illustrator 27.5.0, SVG Export Plug-In . SVG Version: 6.00 Build 0)  -->
<svg version="1.1" xmlns="http://www.w3.org/2000/svg" xmlns:xlink="http://www.w3.org/1999/xlink" x="0px" y="0px"
	 viewBox="0 0 500 500" style="enable-background:new 0 0 500 500;" xml:space="preserve">
<g id="BACKGROUND">
	
		<rect x="0" y="0" transform="matrix(4.000001e-07 -1 1 4.000001e-07 -1.063155e-04 499.9999)" style="fill:#FFFFFF;" width="500" height="500"/>
</g>
<g id="OBJECTS">
	<g>
		<path style="fill:#B6B7E5;" d="M74.969,259.888c5.646,10.845,13.597,20.326,22.449,28.787c1.069,1.024,2.15,2.033,3.242,3.022
			c39.341,35.734,93.829,53.609,146.874,50.205c1.419-0.09,2.843-0.195,4.258-0.321c13.862-1.165,27.598-3.665,41.084-7.087
			c13.066-3.311,25.995-7.534,38.344-12.952c13.236-5.788,25.809-12.947,37.2-21.823c20.937-16.304,37.675-38.774,44.374-64.381
			c0.355-1.336,0.676-2.688,0.971-4.042c4.725-21.711,2.092-44.147-2.93-65.955c-1.224-5.289-2.585-10.544-4.015-15.742
			c-6.713-24.358-16.676-49.653-37.426-65.43c-0.672-0.509-1.353-1.013-2.051-1.502c-19.528-13.786-48.026-10.813-65.008,5.594
			c-6.796,6.567-11.908,14.718-18.727,21.258c-19.757,18.944-49.685,21.235-77.03,22.464c-14.27,0.645-28.534,1.285-42.804,1.93
			c-3.574,0.163-7.158,0.326-10.735,0.56c-6.962,0.457-13.894,1.199-20.679,2.767c-25.365,5.848-47.715,23.738-58.8,47.29
			c-2.313,4.909-4.122,10.045-5.427,15.302C63.165,219.809,65.451,241.611,74.969,259.888z"/>
		<path style="fill:#CCCEF2;" d="M285.957,274.525c4.997,11.292,13.1,20.963,22.056,29.464c7.047,6.693,14.754,12.804,23.207,17.552
			c13.236-5.788,25.809-12.947,37.2-21.823c20.937-16.304,37.675-38.774,44.374-64.381c-1.52-1.708-3.114-3.354-4.772-4.922
			c-15.282-14.451-35.759-22.826-56.658-25.227c-13.593-1.558-27.725-0.634-40.314,4.727c-12.593,5.356-23.484,15.529-27.824,28.502
			C279.302,250.13,280.965,263.229,285.957,274.525z"/>
		<path style="fill:#CCCEF2;" d="M68.131,199.833c1.467,4.468,3.37,8.791,5.76,12.886c10.376,17.805,30.963,30.312,51.385,27.548
			c17.249-2.338,32.09-15.227,38.995-31.202c6.906-15.975,6.461-34.518,1.093-51.076c-2.714-8.379-6.93-16.44-12.326-23.514
			c-6.962,0.457-13.894,1.199-20.679,2.767c-25.365,5.848-47.715,23.738-58.8,47.29C71.245,189.439,69.436,194.575,68.131,199.833z"
			/>
		<path style="fill:#CCCEF2;" d="M97.418,288.675c1.069,1.024,2.15,2.033,3.242,3.022c39.341,35.734,93.829,53.609,146.874,50.205
			c1.419-0.09,2.843-0.195,4.258-0.321c-2.079-9.771-7.7-20.292-10.857-27.001c-4.95-10.527-11.166-20.774-20.228-28.064
			c-7.635-6.142-16.906-9.887-26.253-12.832c-13.696-4.321-27.873-7.116-42.186-8.322c-16.998-1.432-36.08,0.198-47.771,12.619
			C101.546,281.116,99.246,284.772,97.418,288.675z"/>
		<path style="fill:#CCCEF2;" d="M334.982,171.647c6.967,10.179,17.391,18.613,29.592,20.435
			c13.088,1.952,26.462-4.061,35.879-13.354c4.044-3.988,7.455-8.529,10.381-13.386c-1.224-5.289-2.585-10.544-4.015-15.742
			c-6.713-24.358-16.676-49.653-37.426-65.43c-14.018,1.562-27.645,9.097-35.763,20.769
			C320.116,124.354,321.627,152.126,334.982,171.647z"/>
	</g>
	<ellipse style="fill:#B6B7E5;" cx="251.792" cy="461.84" rx="164.391" ry="13.915"/>
	<g>
		<path style="fill:#020B2A;" d="M264.807,78.69c-0.146-0.134-0.374-0.286-0.568-0.364c-0.093-0.038-0.29-0.099-0.409-0.16
			c-0.072-0.037-0.131-0.085-0.182-0.146c-0.158,0.37-0.31,0.742-0.457,1.115c0.022,0.25,0.109,0.493,0.218,0.724
			c0.148,0.314,0.316,0.633,0.517,0.917c0.127,0.179,0.279,0.346,0.453,0.403c0.217,0.071,0.401,0.039,0.594-0.075
			c0.405-0.239,0.533-0.816,0.478-1.244c-0.027-0.208-0.113-0.449-0.216-0.633C265.107,78.996,265.007,78.872,264.807,78.69z"/>
		<path style="fill:#020B2A;" d="M200.839,73.648c0.781-2.796,2.384-5.261,4.409-7.335c-0.691,1.381-1.264,2.821-1.696,4.305
			c-0.941,3.229-1.235,6.649-0.785,9.985c0.056,0.418,0.123,0.834,0.202,1.249c0.104,0.551,1.027,0.431,0.986-0.133
			c-0.207-2.813,1.153-5.445,3.052-7.439c2.107-2.212,4.874-3.644,7.576-4.99c2.624-1.307,5.277-2.581,7.585-4.415
			c0.559-0.444,1.09-0.923,1.585-1.436c-0.028,1.331-0.019,2.652,0,3.941c0.027,1.818,0.066,3.637,0.191,5.452
			c0.123,1.786,0.287,3.608,0.748,5.343c0.435,1.634,1.29,3.004,2.324,4.324c0.549,0.701,1.108,1.395,1.662,2.092
			c0.221,0.277,0.453,0.553,0.682,0.833c-0.109-0.538-0.212-1.077-0.318-1.611c-0.812-4.101-1.462-8.235-1.952-12.387
			c-0.244-2.064-0.447-4.133-0.611-6.205c-0.137-1.742-0.19-3.487-0.29-5.231c0.271-0.526,0.527-1.061,0.77-1.601
			c1.371-0.415,2.746-0.817,4.109-1.257c2.675-0.865,5.316-1.863,7.793-3.204c1.198-0.649,2.359-1.382,3.456-2.191
			c0.98-0.722,1.936-1.475,2.824-2.306c-0.143-0.536-0.153-1.092,0.055-1.647c0.223-0.597,1.186-0.337,0.961,0.265
			c-0.307,0.821,0.077,1.638,0.545,2.318c1.852,2.693,5.063,4.185,7.977,5.415c0.765,0.323,1.535,0.634,2.302,0.952
			c0.736,0.306,1.649,0.563,2.177,1.197c0.618,0.743,0.568,1.84,0.663,2.752c0.105,1.021,0.221,2.041,0.349,3.06
			c0.517,4.132,1.225,8.24,2.11,12.308c0.165,0.759,0.355,1.523,0.525,2.291c0.53-2.521,1.865-4.852,2.28-7.414
			c0.465-2.877-0.003-5.83-0.729-8.622c-0.744-2.864-1.729-5.676-2.758-8.449c-0.509-1.371-1.031-2.741-1.6-4.088
			c-0.548-1.296-1.217-2.495-2.187-3.524c-0.963-1.021-2.074-1.915-3.188-2.763c-0.491-0.374-0.994-0.733-1.501-1.085
			c-0.324-0.121-0.634-0.274-0.962-0.408c-0.529-0.217-1.026-0.487-1.529-0.757c-0.512-0.275-1.024-0.56-1.551-0.812
			c0.539-0.799,0.668-1.804,0.519-2.742c-0.35-2.212-2.364-3.603-4.406-4.116c-2.369-0.595-4.922-0.268-7.182,0.598
			c-2.1,0.805-4.235,2.036-5.158,4.194c-0.492,1.151-0.66,2.459-0.43,3.693c0.103,0.55,0.287,1.146,0.55,1.642
			c0.057,0.107,0.125,0.207,0.202,0.298c-0.106,0.209-0.217,0.415-0.336,0.615c-0.067,0.113-0.141,0.223-0.213,0.333
			c-0.663,0.513-1.326,1.026-2.006,1.517c-0.531,0.383-1.134,0.782-1.765,1.026c-0.269,0.274-0.53,0.558-0.776,0.859
			c-0.526,0.644-0.988,1.318-1.396,2.016c-0.609,0.362-1.235,0.693-1.866,1.012c-4.035,1.224-8.127,2.405-11.866,4.368
			c-1.182,0.62-2.317,1.326-3.38,2.133c-1.058,0.804-2.261,1.681-2.897,2.881c-0.047,0.089,0.084,0.167,0.136,0.08
			c0.373-0.629,0.961-1.035,1.553-1.442c0.471-0.324,0.948-0.642,1.435-0.942c0.998-0.616,2.042-1.164,3.095-1.679
			c1.097-0.536,2.215-1.022,3.348-1.473c-3.086,1.581-5.828,3.672-8.017,6.379c-0.484,0.598-0.936,1.221-1.363,1.86
			c-0.962,0.783-1.861,1.643-2.666,2.607c-1.777,2.128-3.089,4.714-3.49,7.474C200.694,73.697,200.815,73.736,200.839,73.648z"/>
		<path style="fill:#020B2A;" d="M228.923,86.524c-0.181,0.242-0.298,0.522-0.333,0.859c-0.057,0.543,0.02,1.107,0.185,1.626
			c0.137,0.43,0.404,0.917,0.817,1.139c0.162,0.087,0.249,0.046,0.377-0.082c0.181-0.181,0.253-0.457,0.449-0.617
			c0.025-0.02,0.054-0.035,0.082-0.05c-0.012-0.027-0.026-0.052-0.037-0.08c-0.259-0.62-0.465-1.259-0.641-1.909
			c-0.021-0.013-0.044-0.02-0.064-0.037C229.453,87.124,229.183,86.83,228.923,86.524z"/>
		<path style="fill:#020B2A;" d="M232.545,90.93c1.096,1.343,2.575,2.312,4.084,3.132c1.667,0.906,3.431,1.609,5.223,2.227
			c0.901,0.311,1.81,0.6,2.72,0.884c0.891,0.278,1.809,0.635,2.744,0.719c0.953,0.085,1.812-0.234,2.643-0.671
			c0.802-0.421,1.566-0.912,2.295-1.449c1.431-1.054,2.715-2.3,3.942-3.581c1.219-1.274,2.443-2.57,3.52-3.968
			c1.015-1.319,1.907-2.78,2.319-4.407c0.487-1.924,0.102-3.865-0.328-5.759c-0.445-1.961-0.862-3.927-1.23-5.904
			c-0.744-4-1.316-8.033-1.715-12.082c-0.043-0.432-0.04-0.927-0.246-1.322c-0.177-0.341-0.545-0.511-0.88-0.662
			c-0.738-0.332-1.494-0.626-2.242-0.935c-1.499-0.618-2.999-1.244-4.428-2.013c-1.418-0.762-2.775-1.676-3.911-2.824
			c-0.638-0.645-1.357-1.477-1.741-2.387c-0.804,1.029-1.702,1.968-2.736,2.778c-2.263,1.772-4.893,3.037-7.556,4.085
			c-2.58,1.015-5.242,1.837-7.917,2.566c0.021,0.866,0.078,1.736,0.134,2.599c0.524,8.086,1.523,16.173,3.287,24.088
			C230.91,87.767,231.409,89.537,232.545,90.93z"/>
		<path style="fill:#020B2A;" d="M260.751,102.674c-0.516-2.204-0.862-4.455-1.118-6.703c-0.129-1.137-0.189-2.282-0.22-3.426
			c-0.022-0.798-0.024-1.617,0.032-2.424c-0.357,0.413-0.719,0.821-1.086,1.222c-1.242,1.358-2.505,2.703-3.889,3.919
			c-1.371,1.205-2.88,2.336-4.548,3.097c-0.909,0.415-1.841,0.639-2.844,0.512c-0.987-0.125-1.935-0.467-2.881-0.762
			c-2.088-0.653-4.222-1.35-6.245-2.26c0.051,0.406,0.035,0.826,0.047,1.235c0.019,0.649,0.031,1.299,0.036,1.948
			c0.01,1.299-0.009,2.598-0.056,3.896c-0.04,1.098-0.06,2.212-0.239,3.298c-0.172,1.044-0.603,1.968-1.26,2.794
			c-0.615,0.774-1.366,1.439-2.116,2.078c-0.773,0.658-1.577,1.28-2.404,1.868c-2.755,1.959-5.814,3.39-8.933,4.661
			c-0.008,0.016-0.014,0.033-0.029,0.045c-0.305,0.221-0.617,0.429-0.926,0.641c-0.031,0.091-0.104,0.171-0.21,0.177
			c-0.015,0.001-0.029,0.002-0.044,0.003c-0.068,0.049-0.139,0.094-0.206,0.145c-0.097,0.074-0.494,0.264-0.525,0.409
			c-0.029,0.138,0.203,0.385,0.28,0.5c0.254,0.378,0.522,0.747,0.794,1.112c0.55,0.735,1.125,1.442,1.764,2.102
			c1.27,1.312,2.72,2.441,4.305,3.348c3.606,2.066,7.744,2.655,11.841,2.84c4.339,0.196,8.712-0.212,12.9-1.389
			c3.725-1.047,7.26-2.714,10.393-4.991c1.502-1.091,2.9-2.329,4.166-3.687c0.634-0.68,1.237-1.39,1.796-2.134
			c0.278-0.369,0.546-0.746,0.803-1.129c0.129-0.192,0.256-0.385,0.38-0.581c0.06-0.094,0.119-0.189,0.178-0.284
			c-0.104-0.075-0.176-0.184-0.177-0.31c-0.158-0.045-0.311-0.105-0.445-0.161c-1.057-0.446-1.971-1.152-2.822-1.909
			c-1.458-1.295-2.829-2.707-3.981-4.284C262.067,106.455,261.212,104.645,260.751,102.674z"/>
		<path style="fill:#020B2A;" d="M155.507,259.319c0.039,0.303,0.064,0.607,0.097,0.917c0.057,0.536,0.116,1.071,0.155,1.609
			c0.076,1.029,0.12,2.06,0.209,3.088c0.082,0.942,0.186,1.882,0.315,2.818c0.097,0.703,0.124,1.628,0.616,2.189
			c0.189,0.216,0.279,0.236,0.385-0.033c0.139-0.355,0.169-0.774,0.217-1.151c0.12-0.933,0.155-1.876,0.216-2.814
			c0.121-1.878,0.159-3.764,0.208-5.646c0.025-0.958,0.035-1.915,0.053-2.873c0.007-0.387,0.033-0.77,0.084-1.152
			C157.319,257.394,156.54,258.486,155.507,259.319z"/>
		<path style="fill:#020B2A;" d="M154.893,258.519c1.075-0.893,1.849-2.069,2.612-3.224c0.803-1.216,1.621-2.408,2.667-3.432
			c1.051-1.028,2.268-1.95,3.071-3.201c0.433-0.675,0.698-1.421,0.816-2.214c0.124-0.837,0.021-1.676,0.116-2.512
			c0.049-0.433,0.647-0.562,0.786-0.106c0.299,0.983,0.217,2.099,0.031,3.101c-0.171,0.922-0.547,1.794-1.096,2.554
			c-1.043,1.442-2.514,2.472-3.689,3.793c-0.478,0.538-0.905,1.132-1.316,1.742c0.06,0.036,0.11,0.089,0.132,0.157
			c0.159,0.489-0.056,1.039-0.099,1.546c-0.047,0.561-0.064,1.124-0.088,1.687c-0.051,1.173-0.088,2.347-0.116,3.521
			c-0.025,1.048-0.049,2.096-0.074,3.143c-0.023,0.986,0.016,1.966-0.069,2.951c-0.037,0.431-0.091,0.861-0.157,1.289
			c0.047,0.444,0.193,1.119,0.677,1.222c0.488,0.105,0.579-0.741,0.64-1.06c0.203-1.068,0.122-2.199,0.145-3.281
			c0.024-1.145,0.068-2.289,0.132-3.432c0.065-1.164,0.147-2.327,0.245-3.489c0.097-1.139,0.144-2.286,0.576-3.358
			c0.077-0.192,0.426-0.265,0.467,0c0.232,1.479-0.063,2.998-0.18,4.479c-0.211,2.661-0.268,5.324-0.397,7.988
			c-0.017,0.355-0.049,0.714-0.106,1.068c0.022,0.027,0.038,0.061,0.036,0.109c-0.02,0.472,0.536,0.723,0.937,0.55
			c0.453-0.195,0.65-0.688,0.739-1.137c0.113-0.572,0.111-1.18,0.149-1.76c0.039-0.599,0.074-1.199,0.105-1.799
			c0.065-1.22,0.117-2.442,0.158-3.663c0.041-1.235,0.097-2.438,0.399-3.641c0.033-0.132,0.239-0.135,0.27,0
			c0.299,1.291,0.287,2.573,0.245,3.89c-0.037,1.16-0.092,2.319-0.161,3.477c-0.055,0.926-0.091,1.865-0.188,2.792
			c0.006,0.012,0.018,0.017,0.021,0.03c0.038,0.129,0.216,0.089,0.295,0.026c0.142-0.115,0.169-0.386,0.199-0.55
			c0.094-0.518,0.167-1.041,0.24-1.563c0.153-1.087,0.235-2.191,0.315-3.285c0.078-1.077,0.136-2.156,0.191-3.234
			c0.025-0.489,0.064-0.98,0.161-1.461c-0.115-0.091-0.182-0.241-0.136-0.404c0.138-0.488,0.493-0.866,0.767-1.286
			c0.274-0.421,0.529-0.854,0.766-1.298c0.455-0.852,0.842-1.738,1.174-2.645c0.619-1.688,1.06-3.432,1.447-5.186
			c0.417-1.884,0.839-3.745,1.656-5.504c0.382-0.822,0.857-1.586,1.378-2.32c-0.099,0.032-0.196-0.093-0.118-0.193
			c1.315-1.688,2.658-3.35,4.036-4.987c1.35-1.603,2.643-3.248,4.002-4.844c4.744-5.574,9.678-10.996,14.164-16.785
			c2.163-2.791,4.307-5.665,6.007-8.768c0.821-1.499,1.467-3.067,2.103-4.651c0.176-0.439,0.353-0.885,0.538-1.33
			c0.376-0.628,0.815-1.22,1.289-1.778c0.46-0.542,0.956-1.052,1.342-1.653c0.38-0.593,0.678-1.232,0.949-1.88
			c1.024-2.452,1.917-4.968,2.789-7.481c0.014-0.037,0.029-0.073,0.043-0.11c0.503-1.327,0.958-2.673,1.364-4.034
			c0.203-0.68,0.393-1.364,0.571-2.052c0.093-0.362,0.184-0.724,0.27-1.088c0.073-0.307,0.117-0.573,0.313-0.801
			c-0.059-0.664-0.117-1.329-0.178-1.993c-0.139-1.539-0.251-3.085-0.445-4.618c-0.112-0.885-0.301-1.747-0.536-2.599
			c-0.024-0.031-0.062-0.082-0.012-0.02c-0.019-0.023-0.037-0.046-0.056-0.068c-0.048-0.056-0.098-0.11-0.151-0.161
			c-0.047-0.047-0.096-0.091-0.146-0.134c-0.023-0.02-0.046-0.038-0.069-0.057c-0.005-0.003-0.009-0.007-0.021-0.015
			c-0.116-0.079-0.233-0.154-0.358-0.219c-0.059-0.031-0.119-0.059-0.18-0.085c0.085,0.037-0.08-0.028-0.11-0.038
			c-0.232-0.079-0.466-0.143-0.705-0.198c-0.633,0.027-1.266,0.054-1.899,0.08c-2.851,0.12-5.702,0.239-8.553,0.357
			c0.012,0.107-0.001,0.219-0.047,0.325c-0.009,0.02-0.016,0.039-0.025,0.059c-0.049,0.043-0.093,0.095-0.119,0.17
			c-0.065,0.191-0.131,0.381-0.196,0.572c-0.414,0.969-0.816,1.943-1.196,2.925c-0.866,2.238-1.617,4.511-2.374,6.788
			c-0.495,1.49-0.987,2.986-1.447,4.49c-0.03,0.132-0.056,0.264-0.092,0.394c-0.117,0.425-0.247,0.846-0.395,1.259
			c-0.068,0.241-0.141,0.481-0.207,0.723c-0.018,0.067-0.066,0.088-0.116,0.091c-0.081,0.185-0.165,0.369-0.257,0.551
			c-0.87,1.717-2.088,3.249-3.276,4.754c-2.583,3.273-4.971,6.664-7.164,10.211c-2.232,3.609-4.287,7.324-6.295,11.061
			c-2.108,3.923-4.162,7.874-6.155,11.857c-0.964,1.928-1.912,3.864-2.772,5.841c-0.423,0.972-0.818,1.956-1.193,2.947
			c-0.273,0.721-0.502,1.456-0.777,2.173c-0.028,0.158-0.064,0.314-0.102,0.47c-0.105,0.234-0.205,0.471-0.313,0.703
			c-0.998,2.124-2.47,3.893-4.062,5.596c-0.415,0.444-0.844,0.881-1.226,1.353c-0.238,0.294-0.427,0.615-0.578,0.955
			c-0.08,0.119-0.16,0.238-0.232,0.363c-0.43,0.751-0.642,1.587-0.796,2.432c-0.324,1.774-0.594,3.542-1.045,5.291
			c-0.452,1.756-1.012,3.484-1.675,5.172c-0.165,0.42-0.347,0.834-0.512,1.254c-0.115,0.293-0.288,0.709-0.093,1.007
			C153.585,259.623,154.624,258.743,154.893,258.519z"/>
		<path style="fill:#020B2A;" d="M221.112,391.687c-3.952-1.177-8.004-2.084-12.128-2.337c-2.934-0.18-5.86,0.011-8.769,0.368
			c0.592,2.931,1.146,5.869,1.658,8.815c0.919,5.288,1.706,10.6,2.364,15.927c0.33,2.679,0.669,5.367,0.876,8.058
			c0.101,1.309,0.218,2.632,0.245,3.944c0.014,0.68,0.013,1.355,0.049,2.036c0.035,0.677,0.002,1.358,0.011,2.037
			c0.001,0.052-0.028,0.076-0.063,0.088c0,0.001,0,0.002,0.001,0.003c0.106,0.339,0.326,0.546,0.578,0.784
			c0.557,0.527,1.194,0.755,1.918,0.978c2.848,0.875,5.902,1.354,8.87,0.873c1.426-0.231,2.904-0.639,4.121-1.442
			c0.562-0.371,1.051-0.853,1.383-1.443c0.156-0.278,0.269-0.571,0.341-0.881c-0.042-0.016-0.078-0.046-0.08-0.105
			c-0.048-1.448-0.24-2.888-0.306-4.336c-0.065-1.424-0.127-2.848-0.143-4.273c-0.057-5.069-0.104-10.138-0.152-15.207
			c-0.024-2.535-0.048-5.069-0.072-7.604c-0.012-1.278-0.024-2.556-0.036-3.834c-0.006-0.602-0.107-1.577,0.239-2.166
			C221.715,391.878,221.415,391.777,221.112,391.687z"/>
		<path style="fill:#020B2A;" d="M223.155,460.553c-0.052-0.307-0.102-0.615-0.149-0.924c-0.09-0.585-0.171-1.172-0.238-1.76
			c-0.229-2.012-0.3-4.167,0.194-6.162c-0.217,0.119-0.433,0.239-0.645,0.361c-0.753,0.435-1.505,0.871-2.254,1.313
			c-0.142,0.084-0.284,0.169-0.426,0.254c0.176,0.216,0.314,0.474,0.416,0.715c0.322,0.76,0.39,1.625,0.451,2.438
			c0.128,1.688,0.07,3.374-0.125,5.052c0.431-0.017,0.86-0.052,1.285-0.135c0.306-0.06,0.609-0.135,0.908-0.225
			c0.185-0.056,0.526-0.109,0.684-0.235c0-0.016,0.002-0.036,0.005-0.063c-0.007-0.056-0.016-0.113-0.027-0.168
			C223.208,460.859,223.18,460.706,223.155,460.553z"/>
		<path style="fill:#020B2A;" d="M223.264,430.544c-0.068,0.147-0.14,0.291-0.222,0.427c-0.454,0.761-1.121,1.369-1.873,1.831
			c-1.422,0.873-3.124,1.298-4.763,1.512c-1.708,0.223-3.433,0.15-5.133-0.103c-0.872-0.13-1.735-0.313-2.587-0.539
			c-0.795-0.211-1.61-0.437-2.359-0.785c-0.348-0.162-0.692-0.378-0.958-0.66c-0.125-0.132-0.211-0.274-0.275-0.425
			c-0.379,0.836-0.512,1.731-0.677,2.629c-0.341,1.85-0.914,3.681-1.56,5.445c-0.652,1.779-1.398,3.526-2.247,5.22
			c-1.737,3.462-3.881,6.683-6.315,9.692c-1.268,1.567-2.602,3.08-3.959,4.571c-1.311,1.441-2.684,2.836-3.936,4.33
			c-0.598,0.713-1.155,1.46-1.629,2.262c-0.472,0.799-0.909,1.674-1.035,2.605c-0.104,0.761,0.033,1.62,0.561,2.209
			c0.604,0.674,1.566,0.739,2.411,0.844c2.066,0.257,4.153,0.345,6.234,0.264c2.016-0.078,4.077-0.268,6.043-0.739
			c0.877-0.21,1.738-0.518,2.464-1.068c0.641-0.485,1.153-1.126,1.593-1.793c0.924-1.4,1.638-2.921,2.608-4.294
			c1.95-2.758,4.44-5.057,7.138-7.068c2.736-2.039,5.68-3.779,8.631-5.486c0.735-0.425,1.48-0.837,2.206-1.277
			c0.34-0.206,0.686-0.436,0.914-0.769c0.253-0.368,0.355-0.815,0.429-1.249c0.351-2.047,0.138-4.174-0.115-6.219
			C224.386,438.116,223.838,434.327,223.264,430.544z"/>
		<path style="fill:#020B2A;" d="M315.356,459.9c-0.814-1.431-1.771-2.774-2.724-4.114c-0.856-1.205-1.705-2.414-2.471-3.679
			c-0.835-1.379-1.588-2.807-2.282-4.263c-1.377-2.891-2.522-5.886-3.625-8.889c-0.995-2.71-1.947-5.432-2.628-8.236
			c-0.6,0.617-1.324,1.121-2.097,1.496c-1.831,0.887-3.881,1.099-5.893,1.052c-0.991-0.023-2.105,0.003-3.039-0.367
			c-0.547-0.216-1.109-0.66-1.337-1.229c0.037,0.56,0.061,1.122,0.058,1.689c-0.013,1.987-0.167,3.975-0.278,5.958l-0.167,2.97
			c-0.051,0.903-0.197,1.87-0.072,2.771c0.126,0.912,0.767,1.522,1.359,2.17c0.677,0.741,1.355,1.483,2.032,2.224
			c0.678,0.741,1.355,1.483,2.032,2.224c0.704,0.771,1.434,1.521,2.07,2.35c0.059,0.077,0.077,0.154,0.078,0.228
			c0.483,0.623,0.897,1.289,1.235,2.031c0.536,1.177,0.925,2.396,1.308,3.629c0.614,1.977,1.279,3.997,2.563,5.656
			c0.598,0.772,1.331,1.437,2.201,1.889c0.316,0.164,0.648,0.29,0.986,0.392c1.515,0.845,3.223,1.38,4.902,1.673
			c1.374,0.24,2.774,0.293,4.056-0.335c1.03-0.504,1.856-1.389,2.421-2.376c0.314-0.549,0.559-1.145,0.726-1.755
			c0.08-0.292,0.233-0.802,0.214-1.224c0.008-0.033,0.017-0.068,0.025-0.101c-0.22-0.57-0.384-1.16-0.615-1.73
			C316.102,461.279,315.743,460.58,315.356,459.9z"/>
		<path style="fill:#020B2A;" d="M289.46,430.99c0.638,0.842,1.627,1.134,2.648,1.211c1.179,0.089,2.376,0.11,3.554,0.007
			c1.808-0.158,3.677-0.719,5.032-1.978c0.191-0.178,0.412-0.499,0.674-0.646c-0.012-0.055-0.025-0.109-0.037-0.164
			c-0.497-2.374-0.834-4.84-0.781-7.284c-0.023-0.174-0.048-0.348-0.07-0.522c-0.402-3.302-0.797-6.602-1.247-9.898
			c-0.225-1.646-0.448-3.291-0.684-4.935c-0.118-0.822-0.239-1.644-0.363-2.465c-0.062-0.411-0.125-0.821-0.189-1.232
			c-0.032-0.205-0.065-0.41-0.094-0.616c-0.031-0.222,0.036-0.358,0.144-0.551c0.002-0.004,0.006-0.005,0.009-0.009
			c-1.747,0.306-3.497,0.573-5.239,0.811c-4.227,0.577-8.484,0.924-12.747,1.052c0.047,0.038,0.084,0.084,0.114,0.137
			c0.048-0.013,0.102,0.003,0.118,0.067c0.215,0.887,0.366,1.788,0.573,2.679c0.208,0.895,0.452,1.778,0.742,2.651
			c0.573,1.723,1.237,3.41,1.953,5.078c1.29,3.006,2.713,5.959,3.843,9.031c0.903,2.455,1.549,4.966,1.795,7.547
			C289.275,430.897,289.392,430.902,289.46,430.99z"/>
		<path style="fill:#020B2A;" d="M305.546,392.564c-6.941,1.535-13.98,2.933-21.02,3.924c-6.892,0.97-13.699,0.992-20.529-0.428
			c-6.663-1.385-13.06-3.768-19.464-6.021c-6.6-2.322-13.262-4.355-20.14-5.682c-7.08-1.366-14.257-2.038-21.464-2.138
			c-7.172-0.1-14.36,0.212-21.519-0.359c-6.334-0.506-12.534-1.81-18.417-4.243c-10.748-4.446-20.005-11.996-27.034-21.214
			c-0.123-0.161-0.12-0.32-0.048-0.447c-0.016-0.01-0.03-0.021-0.046-0.031c-0.902-0.597-1.756-1.255-2.68-1.822
			c-2.094-1.286-4.309-2.377-6.429-3.618c0.824,0.807,1.635,1.627,2.414,2.477c9.279,10.128,15.676,23.187,27.223,31.102
			c6.325,4.336,13.868,6.874,21.532,7.218c8.243,0.37,16.226-2.061,24.377-2.804c8.045-0.733,15.744,1.016,23.318,3.604
			c7.564,2.585,14.952,5.548,22.742,7.427c15.756,3.8,32.303,4.36,48.277,1.611c6.948-1.196,14.003-2.837,20.347-5.999
			c5.362-2.672,10.253-6.595,12.732-12.139c-1.492,1.526-3.394,2.749-5.237,3.659C318.59,389.55,311.928,391.152,305.546,392.564z"
			/>
		<path style="fill:#020B2A;" d="M325.161,363.695c-3.368-5.89-6.528-11.899-9.472-18.011
			c-5.833-12.107-10.793-24.616-14.924-37.402c-4.191-12.97-7.602-26.176-10.818-39.417c-3.205-13.195-6.218-26.436-9.625-39.581
			c-3.31-12.769-7.147-25.372-11.406-37.855c0.002-0.048,0.005-0.096,0.011-0.14c0.061-0.442,0.07-0.889,0.091-1.334
			c0.014-0.301,0.042-0.602,0.076-0.902c1.026-2.663,2.102-5.308,3.089-7.987c1.102-2.99,2.279-5.951,3.373-8.944
			c0.533-1.458,1.065-2.92,1.349-4.451c0.285-1.539,0.342-3.11,0.351-4.672c0.018-3.237-0.065-6.478-0.179-9.713
			c-0.057-1.626-0.128-3.252-0.212-4.877c-0.041-0.792-0.085-1.583-0.133-2.374c-0.025-0.417-0.051-0.833-0.077-1.249
			c-0.013-0.203-0.05-0.421-0.041-0.625c0.009-0.198,0.086-0.401,0.136-0.591c0.095-0.36,0.544-0.293,0.665,0
			c0.101,0.244,0.191,0.453,0.212,0.716c0.018,0.229,0.03,0.458,0.044,0.687c0.029,0.458,0.057,0.916,0.084,1.374
			c0.054,0.916,0.103,1.833,0.149,2.75c0.091,1.834,0.164,3.668,0.221,5.503c0.1,3.236,0.221,6.493,0.11,9.73
			c-0.022,0.64-0.068,1.281-0.133,1.92c1.082-0.876,2.315-1.58,3.582-2.132c1.403-0.611,2.865-1.07,4.353-1.424
			c1.528-0.364,3.093-0.666,4.667-0.72c1.6-0.055,3.154,0.207,4.605,0.895c0.617,0.293,1.31,0.732,2.015,0.721
			c0.387-0.006,0.76-0.139,1.034-0.385c-0.044-0.059-0.077-0.127-0.083-0.209c-0.041-0.627-0.012-1.23,0.024-1.857
			c0.287-4.892,0.322-9.799,0.106-14.694c-0.216-4.892-0.678-9.775-1.399-14.618c-0.612-4.112-1.421-8.302-3.296-12.048
			c-0.909-1.816-2.059-3.605-3.589-4.962c-0.729-0.646-1.576-1.179-2.516-1.452c-1.103-0.32-2.265-0.279-3.396-0.163
			c-1.21,0.124-2.413,0.325-3.617,0.498c-1.219,0.175-2.44,0.329-3.659,0.502c-1.107,0.157-2.243,0.406-3.364,0.419
			c-0.603,0.007-1.207-0.046-1.752-0.253c0.043,0.337-0.158,0.728-0.335,1.011c-0.262,0.42-0.537,0.833-0.822,1.238
			c-0.595,0.843-1.237,1.655-1.92,2.427c-1.364,1.543-2.898,2.926-4.548,4.158c-3.429,2.56-7.377,4.388-11.509,5.479
			c-4.605,1.216-9.429,1.548-14.17,1.177c-2.38-0.186-4.795-0.488-7.073-1.23c-1.923-0.627-3.751-1.552-5.396-2.729
			c-1.645-1.177-3.099-2.587-4.326-4.195c-0.305-0.4-0.589-0.814-0.843-1.248c-0.233-0.398-0.612-0.901-0.602-1.381
			c0.005-0.198,0.078-0.354,0.187-0.483c-0.244,0.016-0.488,0.03-0.732,0.032c-2.766,0.023-5.531-0.231-8.296-0.294
			c-2.184-0.05-4.559,0.133-6.033,1.956c-0.759,0.938-1.277,2.093-1.819,3.162c-0.578,1.14-1.128,2.294-1.652,3.46
			c-1.044,2.327-1.974,4.705-2.794,7.119c-1.644,4.841-2.84,9.835-3.571,14.895c-0.73,5.051-0.979,10.176-0.754,15.275
			c0.025,0.568-0.012,1.196,0.13,1.749c0.135,0.53,0.638,0.527,1.103,0.514c1.407-0.04,2.813-0.116,4.219-0.174
			c2.835-0.118,5.669-0.237,8.504-0.357c0.192-0.008,0.32,0.079,0.398,0.201c0.11,0.02,0.218,0.045,0.321,0.08
			c0.105,0.036,0.202,0.085,0.301,0.129c-0.006-0.018-0.012-0.036-0.018-0.053c-0.462-1.308-0.985-2.595-1.37-3.929
			c-0.416-1.442-0.617-2.924-0.58-4.425c0.038-1.547,0.312-3.055,0.631-4.564c0.318-1.502,0.698-2.994,1.11-4.473
			c0.416-1.492,0.812-3.031,1.407-4.462c0.041-0.099,0.176-0.062,0.16,0.044c-0.133,0.873-0.356,1.733-0.53,2.599
			c-0.17,0.846-0.357,1.689-0.523,2.536c-0.328,1.67-0.699,3.344-0.928,5.032c-0.209,1.539-0.403,3.075-0.301,4.632
			c0.092,1.41,0.469,2.769,0.929,4.099c0.46,1.33,0.995,2.634,1.4,3.982c0.43,1.434,0.635,2.907,0.78,4.394
			c0.302,3.111,0.569,6.227,0.84,9.342c0.134,1.54,0.267,3.081,0.398,4.622c0.113,1.332,0.248,2.665,0.334,4
			c0.415-0.298,0.987,0.335,0.609,0.792c-0.979,1.184-1.938,2.383-2.872,3.602c-7.321,9.56-13.256,20.192-17.536,31.448
			c-2.267,5.963-3.918,12.089-5.524,18.255c-1.62,6.221-3.488,12.357-5.791,18.361c-4.51,11.76-10.389,23.114-17.69,33.39
			c-3.561,5.012-7.558,9.669-12.043,13.876c-4.458,4.181-9.268,7.96-14.094,11.701c-4.765,3.693-9.56,7.357-14.079,11.351
			c-2.077,1.836-4.881,3.89-5.451,6.774c-0.044,0.223-0.065,0.442-0.076,0.66c0.101,0.594,0.244,1.177,0.46,1.753
			c0.337,0.895,0.816,1.739,1.365,2.52c2.2,3.125,5.638,5.026,8.923,6.807c1.683,0.913,3.374,1.818,4.963,2.89
			c0.805,0.543,1.541,1.115,2.225,1.805c0.641,0.646,1.211,1.37,1.717,2.126c0.072,0.108-0.07,0.211-0.165,0.151
			c1.289,1.564,2.641,3.076,4.063,4.52c8.151,8.281,18.499,14.532,29.894,17.069c6.924,1.542,14.055,1.669,21.118,1.658
			c7.028-0.012,14.039-0.07,21.039,0.674c6.843,0.728,13.623,2.039,20.239,3.932c6.467,1.85,12.727,4.325,19.113,6.422
			c6.331,2.079,12.853,3.792,19.548,3.983c7.258,0.207,14.427-1.238,21.524-2.572c6.729-1.264,13.466-2.58,20.025-4.57
			c3.072-0.932,6.2-1.937,9.077-3.376c2.329-1.165,4.684-2.699,6.148-4.905c1.791-2.699,1.419-5.668-0.023-8.444
			C328.694,369.398,326.818,366.593,325.161,363.695z"/>
		<path style="fill:#020B2A;" d="M296.785,164.406c-0.343-0.029-0.685-0.114-1.012-0.243c-0.738-0.292-1.418-0.684-2.187-0.896
			c-0.777-0.215-1.576-0.299-2.38-0.302c-1.62-0.006-3.228,0.303-4.799,0.672c-2.703,0.635-5.274,1.614-7.492,3.266
			c0.036,0.006,0.07,0.022,0.092,0.059c0.212,0.363,0.246,0.825,0.314,1.238c0.074,0.452,0.153,0.904,0.216,1.357
			c0.121,0.866,0.243,1.733,0.358,2.6c0.414,3.12,0.759,6.248,1.123,9.373c0.184,1.582,0.367,3.165,0.553,4.747
			c0.093,0.791,0.187,1.582,0.28,2.373c0.092,0.777,0.265,1.59,0.25,2.373c-0.001,0.042-0.014,0.077-0.024,0.113
			c0.313,1.949,0.654,3.889,1.064,5.822c0.444,2.091,0.99,4.159,1.594,6.209c1.224,4.161,2.658,8.259,4.037,12.369
			c1.408,4.198,2.814,8.396,4.197,12.603c1.382,4.206,2.741,8.419,4.055,12.647c0.657,2.114,1.303,4.231,1.934,6.352
			c0.313,1.05,0.622,2.102,0.928,3.155c0.159,0.547,0.316,1.093,0.473,1.641c0.075,0.262,0.166,0.525,0.222,0.792
			c0.055,0.261,0.06,0.536,0.081,0.802c0.001,0.018-0.004,0.032-0.005,0.048c0.006,0.03,0.015,0.06,0.021,0.09
			c0.155,0.76,0.279,1.524,0.328,2.299c0.101,1.621,0.022,3.201-0.172,4.812c-0.088,0.727-0.169,1.457-0.153,2.19
			c0.015,0.684,0.133,1.354,0.279,2.021c0.307,1.396,0.615,2.766,0.755,4.192c0.283,2.888,0.292,5.797,0.513,8.69
			c0.03,0.394,0.082,0.918,0.383,1.208c0.406,0.392,0.974,0.016,1.255-0.338c0.728-0.918,1.017-2.226,1.199-3.355
			c0.393-2.442,0.214-4.976,1.07-7.333c0.127-0.35,0.502-0.403,0.756-0.273c0.406-0.127,0.807-0.191,1.241-0.125
			c0.809,0.124,1.489,0.714,1.908,1.393c0.51,0.827,0.61,1.832,0.556,2.782c-0.028,0.495-0.088,0.991-0.163,1.48
			c-0.035,0.228-0.076,0.508-0.16,0.763c0.626,1.494,1.219,3,1.803,4.51c0.058-0.119,0.125-0.236,0.18-0.354
			c0.106-0.23,0.23-0.445,0.353-0.665c0.246-0.438,0.509-0.868,0.76-1.304c0.493-0.855,0.935-1.743,1.318-2.653
			c0.384-0.911,0.703-1.85,0.964-2.803c0.133-0.485,0.251-0.975,0.35-1.468c0.05-0.246,0.095-0.494,0.136-0.742
			c0.041-0.247,0.06-0.449,0.296-0.587c0.004-0.002,0.008-0.002,0.011-0.004c-0.055,0.616-0.092,1.235-0.188,1.847
			c-0.142,0.901-0.314,1.808-0.524,2.696c-0.203,0.857-0.492,1.683-0.78,2.513c-0.261,0.555-0.536,1.103-0.842,1.635
			c-0.249,0.433-0.519,0.863-0.826,1.257c-0.164,0.211-0.324,0.421-0.517,0.607c-0.165,0.158-0.324,0.348-0.52,0.468
			c0.225,0.583,0.449,1.166,0.673,1.749c0.335-0.546,0.706-1.072,1.009-1.639c0.4-0.748,0.738-1.528,1.03-2.324
			c0.024-0.064,0.043-0.13,0.066-0.195c0.236-0.386,0.458-0.78,0.638-1.197c0.371-0.854,0.656-1.749,0.929-2.638
			c0.27-0.88,0.482-1.758,0.628-2.667c0.073-0.458,0.135-0.918,0.185-1.379c0.052-0.484,0.131-0.995,0.104-1.482
			c-0.009-0.163-0.102-0.287-0.223-0.371c-0.012-0.128-0.031-0.255-0.063-0.383c-0.187-0.751-0.657-1.397-1.136-1.99
			c-1.13-1.395-2.256-2.783-3.292-4.25c-1.059-1.499-2.032-3.044-2.917-4.651c-0.428-0.777-0.838-1.567-1.156-2.396
			c-0.152-0.397-0.3-0.836-0.402-1.281c-0.007,0.002-0.014,0.001-0.02,0.002c-0.059-0.185-0.119-0.371-0.182-0.558
			c-0.282-0.841-0.5-1.694-0.708-2.555c-0.607-5.715-1.196-11.432-1.792-17.149c-0.618-5.93-1.236-11.86-1.854-17.79
			c-0.309-2.965-0.618-5.93-0.927-8.895c-0.302-2.894-0.512-5.818-1.003-8.688c-0.477-2.79-1.481-5.353-2.547-7.961
			c-1.041-2.546-1.892-5.15-2.459-7.844C295.711,175.19,295.616,169.706,296.785,164.406z"/>
		<path style="fill:#020B2A;" d="M312.079,280.471c-0.601-1.616-1.183-3.236-1.74-4.866c0.003-0.016,0.008-0.032,0.008-0.049
			c0.001-0.308-0.141-0.588-0.239-0.874c-0.028-0.083-0.043-0.169-0.068-0.252c-0.01-0.237-0.072-0.471-0.198-0.677
			c-0.092-0.151-0.266-0.22-0.433-0.187c0-0.001-0.001-0.002-0.001-0.004c-0.011-0.025-0.028-0.04-0.048-0.05
			c0.013-0.044,0.028-0.088,0.039-0.133c-0.063,0.035-0.123,0.075-0.185,0.112c-0.071-0.028-0.148-0.041-0.225-0.016
			c-0.144,0.047-0.254,0.172-0.274,0.317c-0.314,0.197-0.627,0.396-0.942,0.59c-0.266,0.163-0.641,0.312-0.838,0.561
			c-0.21,0.265-0.036,0.678,0.04,0.966c0.387,1.471,0.809,2.937,1.265,4.389c0.821,2.61,1.846,5.135,2.897,7.659
			c1.079,2.592,2.201,5.166,3.291,7.754c1.094,2.595,2.2,5.185,3.307,7.775c0.545,1.275,1.088,2.551,1.637,3.824
			c0.283,0.656,0.566,1.311,0.849,1.967c0.15,0.347,0.299,0.694,0.449,1.041c0.066,0.154,0.133,0.307,0.196,0.461
			c0.024,0.057,0.056,0.124,0.078,0.186c0.086,0.014,0.165,0.064,0.213,0.177c0.011,0.026,0.009,0.05,0.016,0.076
			c0.598-0.268,1.196-0.537,1.794-0.805l1.265-0.567c0.077-0.034,0.158-0.076,0.238-0.116c-0.241-0.389-0.459-0.791-0.688-1.195
			c-0.357-0.629-0.669-1.289-0.985-1.939c-0.651-1.341-1.302-2.683-1.916-4.041c-2.176-4.812-4.248-9.691-6.094-14.64
			C313.868,285.439,313,282.946,312.079,280.471z"/>
		<path style="fill:#020B2A;" d="M307.926,282.021c-0.27-0.819-0.527-1.642-0.77-2.469c-0.106,0.441-0.282,0.869-0.48,1.268
			c-0.36,0.727-0.784,1.405-1.195,2.103c-0.087,0.148-0.29,0.472-0.14,0.643c0.004-0.009,0.047-0.003,0.1-0.014
			c0.101-0.021,0.201-0.059,0.298-0.093c0.155-0.054,0.304-0.118,0.454-0.186c0.353-0.159,0.684-0.342,0.995-0.573
			C307.463,282.495,307.682,282.253,307.926,282.021z"/>
		<path style="fill:#020B2A;" d="M306.767,284.716c0.007,0.035,0.015,0.07,0.026,0.104c0.004,0.014,0.009,0.028,0.014,0.042
			c0.001,0.003,0.001,0.002,0.003,0.006c0.016,0.031,0.033,0.061,0.049,0.092c0.007,0.011,0.009,0.013,0.01,0.016
			c0.006,0.007,0.012,0.014,0.019,0.021c0.01,0.011,0.057,0.045,0.057,0.047c0.021,0.012,0.049,0.027,0.053,0.031
			c0.03,0.01,0.062,0.016,0.092,0.026c0.003,0.001,0.002,0,0.004,0.001c0.016,0.001,0.032,0.003,0.048,0.003
			c0.044,0.001,0.088-0.002,0.133-0.005c0.016-0.001,0.031-0.002,0.046-0.004c0.004-0.001,0.009-0.002,0.026-0.005
			c0.044-0.011,0.089-0.02,0.133-0.032c0.019-0.005,0.038-0.013,0.056-0.019c0.064,0.034,0.139,0.046,0.214,0.027
			c0.129-0.033,0.258-0.088,0.368-0.162c0.134-0.09,0.237-0.194,0.334-0.323c0.018-0.024,0.025-0.058,0.031-0.091
			c0.033-0.024,0.064-0.045,0.101-0.074c0.042-0.033,0.082-0.059,0.124-0.081c-0.127-0.365-0.252-0.731-0.379-1.097
			c-0.033-0.095-0.062-0.191-0.095-0.286c-0.179,0.192-0.376,0.369-0.563,0.519c-0.188,0.151-0.384,0.297-0.589,0.43
			c-0.018,0.043-0.057,0.071-0.105,0.064c-0.027,0.017-0.054,0.034-0.081,0.05c-0.011,0.02-0.023,0.039-0.034,0.059
			c-0.031,0.061-0.055,0.124-0.071,0.191c-0.032,0.129-0.039,0.257-0.031,0.403c0.002,0.021,0.002,0.019-0.002-0.007
			C306.761,284.681,306.764,284.698,306.767,284.716z"/>
		<path style="fill:#020B2A;" d="M309.97,290.747c1.873,7.338,3.936,14.62,6.273,21.824c1.408,0.126,2.757-0.383,4.045-0.958
			c-0.073-0.068-0.139-0.145-0.187-0.239c-0.39-0.762-0.681-1.589-1.015-2.376c-0.673-1.586-1.35-3.17-2.029-4.754
			c-2.401-5.604-4.901-11.172-7.209-16.816c-0.344-0.841-0.652-1.692-0.951-2.547c-0.046,0.068-0.096,0.134-0.148,0.195
			c-0.093,0.111-0.206,0.206-0.324,0.294c0.249,0.76,0.488,1.521,0.717,2.29C309.449,288.682,309.707,289.713,309.97,290.747z"/>
		<path style="fill:#020B2A;" d="M344.366,328.673c-0.073-0.152-0.098-0.286-0.097-0.436c-0.056-0.075-0.113-0.147-0.16-0.232
			c-0.124-0.224-0.249-0.447-0.376-0.67c-0.253-0.445-0.513-0.886-0.777-1.325c-0.529-0.877-1.079-1.74-1.651-2.59
			c-2.049-3.045-4.37-5.903-6.927-8.536c-1.253-1.29-2.544-2.633-3.999-3.697c-0.73-0.534-1.523-0.964-2.389-1.232
			c-0.573-0.177-1.214-0.282-1.836-0.263c0.013,0.138-0.024,0.284-0.127,0.373c-0.381,0.327-0.942,0.492-1.399,0.697
			c-0.46,0.206-0.92,0.413-1.381,0.619c-0.913,0.409-1.825,0.821-2.74,1.226c-1.375,0.609-3.067,1.292-4.522,0.704
			c-0.247,0.081-0.557,0.003-0.66-0.316c-0.009-0.029-0.018-0.057-0.027-0.085c-0.056-0.061-0.089-0.142-0.072-0.226
			c-0.024-0.073-0.046-0.146-0.07-0.219c-0.104,0.58-0.247,1.148-0.363,1.73c-0.144,0.726-0.27,1.46-0.37,2.193
			c-0.2,1.464-0.295,2.956-0.283,4.434c0.021,2.638,0.415,5.266,1.168,7.794c0.382,1.284,0.855,2.54,1.424,3.753
			c0.554,1.179,1.175,2.371,1.938,3.43c0.189,0.263,0.407,0.465,0.644,0.625c0.254,0.391,0.511,0.78,0.816,1.134
			c0.528,0.611,1.332,0.599,2.075,0.595c1.598-0.009,3.189-0.15,4.768-0.394c3.177-0.492,6.265-1.438,9.218-2.701
			c1.658-0.709,3.269-1.525,4.829-2.428c0.182-0.105,0.243-0.268,0.234-0.428c0.592-0.306,1.18-0.62,1.759-0.948
			c0.082-0.046,0.134-0.106,0.174-0.17c0.39-0.256,0.75-0.547,1.011-0.909c0.217-0.301,0.346-0.663,0.313-1.037
			C344.497,328.969,344.438,328.823,344.366,328.673z M320.687,336.999c-0.052-0.033-0.1-0.073-0.149-0.112
			c0.07,0.011,0.14,0.02,0.21,0.029C320.726,336.942,320.705,336.97,320.687,336.999z"/>
		<path style="fill:#020B2A;" d="M292.72,450.776c0.019-0.275-0.18-0.414-0.394-0.421c-0.32-0.384-0.693-0.728-1.044-1.081
			c-0.214-0.215-0.438-0.418-0.667-0.618c-0.118-0.103-0.237-0.205-0.36-0.302c-0.126-0.099-0.267-0.171-0.399-0.26
			c-0.088-0.059-0.189,0.055-0.14,0.14c0.071,0.125,0.126,0.258,0.205,0.378c0.02,0.031,0.044,0.059,0.065,0.09
			c0.061,0.58,0.275,1.157,0.387,1.724c0.133,0.674,0.302,1.339,0.441,2.012c0.249,1.203,0.299,2.52-0.37,3.601
			c-0.122,0.197-0.007,0.48,0.218,0.536c0.203,0.05,0.399,0.12,0.593,0.199c-0.003,0.007-0.004,0.013-0.007,0.02
			c0.043,0.01,0.085,0.022,0.128,0.032c0.364,0.16,0.71,0.363,1.023,0.609c0.325,0.256,0.765,0.023,0.688-0.4
			C292.705,454.965,292.574,452.874,292.72,450.776z M290.57,449.463c-0.001-0.001-0.001-0.002-0.001-0.003
			c0.043,0.053,0.086,0.107,0.129,0.161c0.082,0.243,0.163,0.485,0.232,0.73C290.805,450.057,290.682,449.764,290.57,449.463z"/>
	</g>
</g>
</svg>
